<?xml version="1.0" encoding="UTF-8" standalone="no"?>
<!-- Created with Inkscape (http://www.inkscape.org/) -->

<svg
   xmlns:dc="http://purl.org/dc/elements/1.1/"
   xmlns:cc="http://creativecommons.org/ns#"
   xmlns:rdf="http://www.w3.org/1999/02/22-rdf-syntax-ns#"
   xmlns:svg="http://www.w3.org/2000/svg"
   xmlns="http://www.w3.org/2000/svg"
   xmlns:sodipodi="http://sodipodi.sourceforge.net/DTD/sodipodi-0.dtd"
   xmlns:inkscape="http://www.inkscape.org/namespaces/inkscape"
   width="2048"
   height="1536"
   viewBox="0 0 541.86665 406.39999"
   version="1.1"
   id="svg8"
   inkscape:version="0.92.2 (5c3e80d, 2017-08-06)"
   sodipodi:docname="image.svg">
  <defs
     id="defs2">
    <style
       id="style4049">
      .cls-1 {
        fill-rule: evenodd;
      }
    </style>
    <inkscape:perspective
       id="perspective3521"
       inkscape:persp3d-origin="-11578.057 : 4929.3039 : 1"
       inkscape:vp_z="-11206.01 : 5104.6976 : 1"
       inkscape:vp_y="0 : 1000 : 0"
       inkscape:vp_x="-11018.676 : 5237.8022 : 1"
       sodipodi:type="inkscape:persp3d" />
  </defs>
  <sodipodi:namedview
     id="base"
     pagecolor="#ffffff"
     bordercolor="#666666"
     borderopacity="1.0"
     inkscape:pageopacity="0.0"
     inkscape:pageshadow="2"
     inkscape:zoom="0.44480331"
     inkscape:cx="1503.0586"
     inkscape:cy="366.97266"
     inkscape:document-units="mm"
     inkscape:current-layer="layer1"
     showgrid="false"
     inkscape:window-width="2048"
     inkscape:window-height="1128"
     inkscape:window-x="1440"
     inkscape:window-y="0"
     inkscape:window-maximized="1"
     inkscape:showpageshadow="false"
     units="px"
     inkscape:snap-global="false" />
  <metadata
     id="metadata5">
    <rdf:RDF>
      <cc:Work
         rdf:about="">
        <dc:format>image/svg+xml</dc:format>
        <dc:type
           rdf:resource="http://purl.org/dc/dcmitype/StillImage" />
        <dc:title></dc:title>
      </cc:Work>
    </rdf:RDF>
  </metadata>
  <g
     inkscape:label="Layer 1"
     inkscape:groupmode="layer"
     id="layer1"
     transform="translate(0,109.39996)">
    <rect
       style="opacity:0.05;fill:#ffffff;fill-opacity:1;stroke:none;stroke-width:0.70884073;stroke-miterlimit:4;stroke-dasharray:none;stroke-opacity:1"
       id="rect5825"
       width="675.49945"
       height="135.94667"
       x="-64.773926"
       y="161.05338"
       inkscape:export-filename="/home/l/git/github.com/raptorbox/www/img/head1.png"
       inkscape:export-xdpi="60"
       inkscape:export-ydpi="60" />
    <path
       inkscape:export-ydpi="50.253647"
       inkscape:export-xdpi="50.253647"
       sodipodi:nodetypes="ssssssscssccccssscsssssssscssssscssssscsscssscsscssssssssssss"
       inkscape:connector-curvature="0"
       id="path3517"
       d="M 7.7060999,131.8878 C 23.250462,112.79965 47.867317,101.69211 101.06376,89.762912 173.61905,73.492803 253.95537,70.0952 335.24163,79.858753 c 15.10905,1.814856 51.90937,8.136045 63.18011,10.852428 17.6629,4.257018 17.28505,3.757831 -1.28195,-1.693677 C 331.93716,69.873175 265.4802,62.904691 197.20774,68.053006 c -37.71978,2.84452 -71.45141,8.90211 -122.432281,21.98679 -7.993765,2.051586 -14.147423,3.24215 -13.674823,2.64547 C 63.706061,89.396653 93.490557,71.748473 115.46569,60.472634 126.82118,54.64602 173.4296,35.931041 182.27294,33.64721 l 3.76515,-0.972395 -1.0282,3.849921 -1.02823,3.849994 2.92585,-3.49924 c 12.13995,-14.520182 83.15197,-23.637791 137.19075,-17.6147 18.12317,2.020144 61.49756,11.295291 54.08581,11.565891 -4.19464,0.153278 -17.08884,3.455303 -21.18926,5.426583 l -4.32699,2.080118 11.29578,-0.829293 c 6.87329,-0.504652 19.06194,-0.205539 31.13234,0.763728 13.76745,1.105592 22.0367,1.248326 27.0269,0.466422 7.01149,-1.098544 7.11935,-1.079758 4.34029,0.754685 -1.56751,1.034634 -4.75824,2.229485 -7.09059,2.655107 -2.33228,0.425649 -4.01687,0.997861 -3.74336,1.271706 0.274,0.273404 4.13706,1.790946 8.58576,3.371391 21.07514,7.487311 54.31017,26.574491 77.33005,44.411348 l 3.9393,3.052548 -2.53701,0.06885 c -4.5464,0.124315 -4.03993,0.590899 4.6326,4.268927 10.99473,4.662559 16.77222,9.608319 19.90275,17.037599 2.09472,4.97104 2.12768,5.5572 0.50189,8.91806 -2.7543,5.69371 -8.43679,6.9213 -17.30861,3.73932 l -2.74637,-0.985 3.35925,2.90462 c 1.84806,1.59702 3.2253,3.22591 3.06192,3.61822 -0.86829,2.08395 -38.31356,9.51412 -72.99249,14.48368 -44.86998,6.42995 -72.34408,8.28938 -99.29856,6.72032 -19.55698,-1.13842 -34.16382,-4.0084 -46.82572,-9.20037 l -9.83906,-4.03452 3.57731,3.08173 c 4.69042,4.04115 15.30047,10.30844 17.89479,10.5707 1.12554,0.11386 1.9289,0.48903 1.78527,0.83366 -0.14421,0.34448 -2.88928,0.28564 -6.10143,-0.1313 -3.95323,-0.51281 -15.15571,-4.64246 -34.66832,-12.77943 -15.85539,-6.6119 -30.53448,-12.39282 -32.62028,-12.84656 l -3.79233,-0.82491 3.18276,1.74015 c 1.75043,0.95711 6.48541,3.51474 10.52207,5.68358 8.70733,4.67849 31.74155,19.86223 31.39468,20.6948 -0.13332,0.31979 -1.41737,0.14908 -2.8537,-0.37953 -5.26367,-1.937 -24.63425,-5.03953 -50.42548,-8.07647 -34.95797,-4.11646 -51.46527,-7.46778 -92.84506,-18.84925 -6.57702,-1.80907 -11.8532,-3.03418 -11.72486,-2.7226 0.12886,0.31163 1.35982,1.28101 2.73642,2.1543 5.66894,3.59613 21.70811,18.83382 20.39401,19.375 -0.20045,0.082 -2.06911,-1.03457 -4.15271,-2.48236 -22.94472,-15.94388 -49.075572,-27.55714 -67.359354,-29.93653 -17.961009,-2.33736 -31.936309,-0.0144 -45.90916,7.63107 -4.74879,2.59828 -10.708406,6.45179 -13.243663,8.56307 -5.509664,4.5885 -4.9229424,4.27531 -5.4791405,2.92441 -0.2513829,-0.61036 0.6484812,-2.46747 1.9998181,-4.12681 z"
       style="opacity:0.05;fill:#6c5353;stroke-width:3.89876747" />
    <rect
       style="opacity:0.03599997;fill:none;fill-opacity:1;stroke:none;stroke-width:1.78590417;stroke-linecap:round;stroke-linejoin:miter;stroke-miterlimit:4;stroke-dasharray:none;stroke-dashoffset:0;stroke-opacity:1"
       id="rect3519"
       width="535.7713"
       height="535.7713"
       x="-647.50653"
       y="-306.76285"
       transform="rotate(-138.52751)" />
    <g
       id="g4174"
       transform="matrix(1.3085329,0,0,1.3085329,126.73284,175.79678)"
       style="opacity:0.85;fill:#6c5353;fill-opacity:1">
      <path
         inkscape:connector-curvature="0"
         d="M 12,24 C 5.383,24 0,18.617 0,12 0,5.383 5.383,0 12,0 18.617,0 24,5.383 24,12 24,18.617 18.617,24 12,24 Z M 12,1 C 5.935,1 1,5.935 1,12 1,18.065 5.935,23 12,23 18.065,23 23,18.065 23,12 23,5.935 18.065,1 12,1 Z"
         id="path4158"
         style="fill:#6c5353;fill-opacity:1" />
      <rect
         x="2"
         y="17"
         width="20"
         height="1"
         id="rect4160"
         style="fill:#6c5353;fill-opacity:1" />
      <path
         inkscape:connector-curvature="0"
         d="m 12.033,14.033 c -1.103,0 -2,-0.897 -2,-2 0,-1.103 0.897,-2 2,-2 1.103,0 2,0.897 2,2 0,1.103 -0.897,2 -2,2 z m 0,-3 c -0.551,0 -1,0.449 -1,1 0,0.551 0.449,1 1,1 0.551,0 1,-0.449 1,-1 0,-0.551 -0.449,-1 -1,-1 z"
         id="path4162"
         style="fill:#6c5353;fill-opacity:1" />
      <rect
         x="11.487"
         y="7.9200001"
         transform="matrix(0.698,-0.7161,0.7161,0.698,-1.3519,13.6336)"
         width="8.0030003"
         height="1"
         id="rect4164"
         style="fill:#6c5353;fill-opacity:1" />
      <g
         id="g4172"
         style="fill:#6c5353;fill-opacity:1">
        <path
           inkscape:connector-curvature="0"
           d="m 19.939,15.5 c -0.13,0 -0.26,-0.05 -0.35,-0.15 -0.1,-0.09 -0.15,-0.22 -0.15,-0.35 0,-0.13 0.061,-0.26 0.15,-0.351 0.18,-0.189 0.52,-0.189 0.71,0 0.09,0.091 0.14,0.221 0.14,0.351 0,0.13 -0.05,0.26 -0.14,0.35 -0.05,0.05 -0.11,0.09 -0.17,0.11 -0.06,0.03 -0.119,0.04 -0.19,0.04 z"
           id="path4166"
           style="fill:#6c5353;fill-opacity:1" />
        <path
           inkscape:connector-curvature="0"
           d="m 20,11.79 c -0.01,-0.27 0.21,-0.5 0.479,-0.51 v 0 c 0.28,0 0.511,0.21 0.521,0.49 v 0 c 0,0.28 -0.21,0.51 -0.49,0.51 v 0 c -0.01,0 -0.01,0 -0.01,0 v 0 C 20.229,12.28 20,12.07 20,11.79 Z M 3.49,12.26 C 3.21,12.25 3,12.02 3,11.74 v 0 c 0.01,-0.27 0.24,-0.49 0.52,-0.48 v 0 C 3.79,11.27 4.01,11.5 4,11.77 v 0 c 0,0.27 -0.23,0.49 -0.5,0.49 v 0 z M 19.33,8.8 C 19.22,8.55 19.34,8.25 19.59,8.14 v 0 c 0.26,-0.11 0.55,0.01 0.66,0.26 v 0 c 0.109,0.25 -0.01,0.55 -0.26,0.66 v 0 C 19.929,9.09 19.859,9.1 19.79,9.1 v 0 C 19.6,9.1 19.42,8.99 19.33,8.8 Z M 4.02,9.04 C 3.76,8.92 3.65,8.63 3.76,8.38 V 8.37 C 3.87,8.12 4.17,8.01 4.42,8.12 v 0 c 0.25,0.11 0.37,0.4 0.25,0.66 v 0 c 0,0 0,0 0.01,0 v 0 C 4.59,8.97 4.41,9.08 4.22,9.08 v 0 C 4.15,9.08 4.08,9.06 4.02,9.04 Z M 17.59,6.28 C 17.39,6.08 17.38,5.77 17.58,5.57 v 0 c 0.189,-0.2 0.51,-0.2 0.71,-0.01 v 0 c 0.189,0.19 0.2,0.51 0,0.71 v 0 c -0.101,0.1 -0.23,0.15 -0.351,0.15 v 0 C 17.81,6.42 17.689,6.37 17.59,6.28 Z M 5.72,6.25 C 5.53,6.05 5.53,5.73 5.73,5.54 v 0 C 5.93,5.35 6.25,5.35 6.44,5.55 v 0 c 0.19,0.2 0.19,0.52 -0.01,0.71 v 0 C 6.33,6.35 6.21,6.4 6.08,6.4 v 0 C 5.95,6.4 5.82,6.35 5.72,6.25 Z m 9.3,-1.66 v 0 0 C 14.77,4.48 14.64,4.19 14.75,3.94 v 0 c 0.1,-0.26 0.399,-0.38 0.649,-0.28 v 0 c 0.25,0.11 0.381,0.4 0.271,0.66 v 0 c -0.08,0.19 -0.26,0.31 -0.46,0.31 v 0 c -0.061,0 -0.13,-0.01 -0.19,-0.04 z M 8.35,4.31 C 8.24,4.05 8.37,3.76 8.62,3.66 v 0 C 8.88,3.55 9.17,3.67 9.27,3.93 v 0 C 9.38,4.19 9.25,4.48 9,4.58 v 0 C 8.94,4.61 8.87,4.62 8.81,4.62 v 0 C 8.61,4.62 8.43,4.5 8.35,4.31 Z M 12.01,4 v 0 0 c -0.27,0 -0.5,-0.23 -0.5,-0.5 v 0 c 0,-0.28 0.23,-0.5 0.5,-0.5 v 0 c 0.28,0 0.5,0.23 0.5,0.5 v 0 c 0,0.28 -0.22,0.5 -0.5,0.5 z"
           id="path4168"
           style="fill:#6c5353;fill-opacity:1" />
        <path
           inkscape:connector-curvature="0"
           d="M 4.06,15.5 C 3.93,15.5 3.8,15.45 3.7,15.35 3.61,15.26 3.56,15.14 3.56,15 c 0,-0.061 0.01,-0.13 0.04,-0.19 0.02,-0.06 0.06,-0.12 0.1,-0.16 0.19,-0.189 0.52,-0.189 0.71,0 0.05,0.04 0.08,0.101 0.11,0.16 0.02,0.061 0.04,0.13 0.04,0.19 0,0.069 -0.02,0.13 -0.04,0.189 -0.03,0.061 -0.06,0.12 -0.11,0.16 C 4.32,15.45 4.19,15.5 4.06,15.5 Z"
           id="path4170"
           style="fill:#6c5353;fill-opacity:1" />
      </g>
    </g>
    <path
       style="opacity:0.85;fill:#6c5353;fill-opacity:1;stroke-width:0.03586895"
       d="m 19.290037,270.09174 c -0.262064,-0.073 -0.535921,-0.22996 -0.713643,-0.4089 -0.101295,-0.10195 -1.48253,-2.17986 -3.532876,-5.3146 -1.851664,-2.83096 -3.473584,-5.30172 -3.604278,-5.49059 -0.845557,-1.22179 -1.397407,-2.64253 -1.6430066,-4.2299 -0.09068,-0.58568 -0.09068,-2.14036 0,-2.72604 0.3566636,-2.30517 1.3266906,-4.19948 2.9616166,-5.78349 2.461798,-2.38514 5.99751,-3.32392 9.347916,-2.48202 3.706305,0.93136 6.595529,3.98216 7.313623,7.72268 0.135317,0.70451 0.178753,1.18344 0.176335,1.94172 -0.0063,1.99458 -0.569401,3.83927 -1.675124,5.48794 -0.13891,0.20716 -0.277875,0.42506 -0.308809,0.48424 -0.171963,0.32921 -6.647528,10.17788 -6.803437,10.34733 -0.102067,0.11086 -0.264617,0.24466 -0.361367,0.29732 -0.352402,0.1918 -0.805564,0.25224 -1.15695,0.15431 z m 0.813284,-11.67797 c 0.720205,-0.0637 1.340383,-0.23363 1.948634,-0.53372 1.569433,-0.77433 2.641205,-2.17072 2.983911,-3.8877 0.107691,-0.53935 0.114875,-1.45088 0.01575,-1.98096 -0.213138,-1.13999 -0.699526,-2.06024 -1.527517,-2.89006 -0.795788,-0.79756 -1.652193,-1.26905 -2.738593,-1.50772 -0.422787,-0.0929 -1.384504,-0.13023 -1.828717,-0.0711 -1.562383,0.20826 -2.979342,1.084 -3.836298,2.37099 -0.563602,0.84643 -0.847778,1.66411 -0.918509,2.64293 -0.117523,1.62682 0.435209,3.11 1.588827,4.26303 0.933949,0.93349 2.057901,1.46621 3.357479,1.59135 0.436414,0.0421 0.510131,0.0422 0.954974,0.003 z"
       id="path4683"
       inkscape:connector-curvature="0" />
    <g
       id="g3365"
       transform="matrix(0.40907289,0,0,0.40907289,108.08361,-313.88714)">
      <text
         inkscape:export-ydpi="50.253647"
         inkscape:export-xdpi="50.253647"
         id="text3468"
         y="374.67639"
         x="156.37239"
         style="font-style:normal;font-weight:normal;line-height:0%;font-family:sans-serif;letter-spacing:0px;word-spacing:0px;fill:#483737;fill-opacity:1;stroke:none;stroke-width:1px;stroke-linecap:butt;stroke-linejoin:miter;stroke-opacity:1"
         xml:space="preserve"><tspan
           y="374.67639"
           x="156.37239"
           id="tspan3470"
           sodipodi:role="line"
           style="font-size:91.10899353px;line-height:1.25;font-family:sans-serif">raptor<tspan
   id="tspan3472"
   style="font-weight:bold;font-family:sans-serif;fill:#483737" /></tspan></text>
      <path
         inkscape:export-ydpi="50.253647"
         inkscape:export-xdpi="50.253647"
         sodipodi:nodetypes="ssssssscssccccssscsssssssscssssscssssscsscssscsscssssssssssss"
         inkscape:connector-curvature="0"
         id="path3451"
         d="m 406.80837,285.39473 c -5.59149,-8.48484 -15.24039,-14.06875 -36.59274,-21.1767 -29.12273,-9.69452 -61.97561,-14.42539 -95.76503,-13.79046 -6.28061,0.11804 -21.65684,1.18621 -26.39849,1.83388 -7.43085,1.015 -7.25494,0.82568 0.59683,-0.64237 27.57339,-5.15536 55.15642,-5.25807 82.98198,-0.30906 15.37333,2.73433 28.97529,6.62268 49.36974,14.11318 3.19785,1.17448 5.6757,1.91895 5.50639,1.65427 -0.93345,-1.45885 -12.43318,-9.94349 -20.99016,-15.48683 -4.42174,-2.86445 -22.78668,-12.48578 -26.32378,-13.79092 l -1.50596,-0.55568 0.26243,1.62385 0.26242,1.62387 -1.05631,-1.55864 c -4.38298,-6.46744 -33.16885,-13.16036 -55.61252,-12.93033 -7.52699,0.0772 -25.72585,2.08561 -22.6931,2.50447 1.71638,0.23711 6.87487,2.12861 8.47706,3.10845 l 1.69071,1.03394 -4.6047,-0.80957 c -2.80189,-0.49263 -7.82015,-0.87586 -12.81767,-0.97893 -5.70015,-0.11755 -9.10224,-0.40226 -11.11924,-0.93056 -2.834,-0.74229 -2.87908,-0.73905 -1.81388,0.12973 0.60082,0.49001 1.86162,1.1132 2.80183,1.38484 0.9402,0.27164 1.60829,0.5766 1.4846,0.6777 -0.12368,0.10112 -1.77344,0.56378 -3.66613,1.02816 -8.96637,2.19999 -23.40839,8.65915 -33.60316,15.02896 l -1.74463,1.09007 1.03908,0.13361 c 1.86204,0.23981 1.63466,0.41041 -2.07985,1.56086 -4.70909,1.45842 -7.28724,3.24976 -8.88138,6.17096 -1.06671,1.95463 -1.10459,2.19399 -0.5764,3.6418 0.89479,2.45274 3.1776,3.19284 6.95334,2.25436 l 1.16882,-0.29052 -1.50019,1.05353 c -0.82508,0.57943 -1.45856,1.19092 -1.40773,1.35887 0.27008,0.89192 15.34025,5.49816 29.37647,8.97898 18.16101,4.50372 29.36736,6.40809 40.50261,6.8828 8.07928,0.34444 14.19744,-0.22779 19.6132,-1.83441 l 4.20839,-1.24844 -1.59711,1.11718 c -2.09417,1.46486 -6.71187,3.59837 -7.78824,3.59837 -0.46697,10e-6 -0.81248,0.12076 -0.76783,0.26825 0.0449,0.14753 1.17478,0.23727 2.51131,0.19943 1.64487,-0.0465 6.41717,-1.27741 14.76879,-3.8091 6.78627,-2.05719 13.05496,-3.82195 13.93042,-3.92168 l 1.59175,-0.18134 -1.37939,0.58253 c -0.75865,0.3204 -2.80948,1.17422 -4.55736,1.89736 -3.77033,1.55992 -13.86084,6.83948 -13.75294,7.19583 0.0415,0.13688 0.57592,0.12007 1.18775,-0.0374 2.24221,-0.57698 10.32647,-1.04693 21.04495,-1.22337 14.52806,-0.23919 21.44668,-0.93018 38.91382,-3.8865 2.77628,-0.46989 4.99405,-0.75399 4.92841,-0.63134 -0.0658,0.12267 -0.6116,0.46971 -1.21323,0.7712 -2.47753,1.24154 -9.69743,6.83373 -9.18021,7.11053 0.0789,0.0421 0.89272,-0.33899 1.80857,-0.8471 10.0853,-5.59545 21.29935,-9.28007 28.90725,-9.49815 7.47358,-0.21422 13.11676,1.32008 18.53792,5.04016 1.84246,1.26428 4.13006,3.09433 5.08361,4.0667 2.0723,2.11324 1.84435,1.96025 2.12886,1.42854 0.12857,-0.24027 -0.16388,-1.04033 -0.64996,-1.77791 z"
         style="fill:#6c5353" />
      <text
         inkscape:export-ydpi="50.253647"
         inkscape:export-xdpi="50.253647"
         id="text3462"
         y="374.67639"
         x="436.37241"
         style="font-style:normal;font-weight:normal;line-height:0%;font-family:sans-serif;letter-spacing:0px;word-spacing:0px;fill:#6c5353;fill-opacity:1;stroke:none;stroke-width:1px;stroke-linecap:butt;stroke-linejoin:miter;stroke-opacity:1"
         xml:space="preserve"><tspan
           y="374.67639"
           x="436.37241"
           id="tspan3464"
           sodipodi:role="line"
           style="font-size:91.10899353px;line-height:1.25;font-family:sans-serif"><tspan
             id="tspan3466"
             style="font-weight:bold;font-family:sans-serif;fill:#6c5353">box</tspan></tspan></text>
      <text
         inkscape:export-ydpi="50.253647"
         inkscape:export-xdpi="50.253647"
         xml:space="preserve"
         style="font-style:normal;font-weight:normal;line-height:0%;font-family:sans-serif;letter-spacing:0px;word-spacing:0px;fill:#483737;fill-opacity:1;stroke:none;stroke-width:1px;stroke-linecap:butt;stroke-linejoin:miter;stroke-opacity:1"
         x="443.51584"
         y="411.19305"
         id="text3488"><tspan
           sodipodi:role="line"
           id="tspan3490"
           x="443.51584"
           y="411.19305"
           style="font-size:22.31155968px;line-height:1.25;font-family:sans-serif">the IoT platform</tspan></text>
    </g>
    <g
       id="g3418"
       inkscape:export-xdpi="154.49001"
       inkscape:export-ydpi="154.49001"
       transform="matrix(0.74916452,0,0,0.74916452,40.500585,-257.48429)">
      <g
         id="g3376"
         transform="matrix(0.5460388,0,0,0.5460388,89.463815,90.48331)">
        <g
           transform="translate(374.3288,-304.52154)"
           id="g3404">
          <path
             style="fill:#6c5353"
             d="m 622.65855,285.39473 c -5.59149,-8.48484 -15.24039,-14.06875 -36.59274,-21.1767 -29.12273,-9.69452 -61.97561,-14.42539 -95.76503,-13.79046 -6.28061,0.11804 -21.65684,1.18621 -26.39849,1.83388 -7.43085,1.015 -7.25494,0.82568 0.59683,-0.64237 27.57339,-5.15536 55.15642,-5.25807 82.98198,-0.30906 15.37333,2.73433 28.97529,6.62268 49.36974,14.11318 3.19785,1.17448 5.6757,1.91895 5.50639,1.65427 -0.93345,-1.45885 -12.43318,-9.94349 -20.99016,-15.48683 -4.42174,-2.86445 -22.78668,-12.48578 -26.32378,-13.79092 l -1.50596,-0.55568 0.26243,1.62385 0.26242,1.62387 -1.05631,-1.55864 c -4.38298,-6.46744 -33.16885,-13.16036 -55.61252,-12.93033 -7.52699,0.0772 -25.72585,2.08561 -22.6931,2.50447 1.71638,0.23711 6.87487,2.12861 8.47706,3.10845 l 1.69071,1.03394 -4.6047,-0.80957 c -2.80189,-0.49263 -7.82015,-0.87586 -12.81767,-0.97893 -5.70015,-0.11755 -9.10224,-0.40226 -11.11924,-0.93056 -2.834,-0.74229 -2.87908,-0.73905 -1.81388,0.12973 0.60082,0.49001 1.86162,1.1132 2.80183,1.38484 0.9402,0.27164 1.60829,0.5766 1.4846,0.6777 -0.12368,0.10112 -1.77344,0.56378 -3.66613,1.02816 -8.96637,2.19999 -23.40839,8.65915 -33.60316,15.02896 l -1.74463,1.09007 1.03908,0.13361 c 1.86204,0.23981 1.63466,0.41041 -2.07985,1.56086 -4.70909,1.45842 -7.28724,3.24976 -8.88138,6.17096 -1.06671,1.95463 -1.10459,2.19399 -0.5764,3.6418 0.89479,2.45274 3.1776,3.19284 6.95334,2.25436 l 1.16882,-0.29052 -1.50019,1.05353 c -0.82508,0.57943 -1.45856,1.19092 -1.40773,1.35887 0.27008,0.89192 15.34025,5.49816 29.37647,8.97898 18.16101,4.50372 29.36736,6.40809 40.50261,6.8828 8.07928,0.34444 14.19744,-0.22779 19.6132,-1.83441 l 4.20839,-1.24844 -1.59711,1.11718 c -2.09417,1.46486 -6.71187,3.59837 -7.78824,3.59837 -0.46697,10e-6 -0.81248,0.12076 -0.76783,0.26825 0.0449,0.14753 1.17478,0.23727 2.51131,0.19943 1.64487,-0.0465 6.41717,-1.27741 14.76879,-3.8091 6.78627,-2.05719 13.05496,-3.82195 13.93042,-3.92168 l 1.59175,-0.18134 -1.37939,0.58253 c -0.75865,0.3204 -2.80948,1.17422 -4.55736,1.89736 -3.77033,1.55992 -13.86084,6.83948 -13.75294,7.19583 0.0415,0.13688 0.57592,0.12007 1.18775,-0.0374 2.24221,-0.57698 10.32647,-1.04693 21.04495,-1.22337 14.52806,-0.23919 21.44668,-0.93018 38.91382,-3.8865 2.77628,-0.46989 4.99405,-0.75399 4.92841,-0.63134 -0.0658,0.12267 -0.6116,0.46971 -1.21323,0.7712 -2.47753,1.24154 -9.69743,6.83373 -9.18021,7.11053 0.0789,0.0421 0.89272,-0.33899 1.80857,-0.8471 10.0853,-5.59545 21.29935,-9.28007 28.90725,-9.49815 7.47358,-0.21422 13.11676,1.32008 18.53792,5.04016 1.84246,1.26428 4.13006,3.09433 5.08361,4.0667 2.0723,2.11324 1.84435,1.96025 2.12886,1.42854 0.12857,-0.24027 -0.16388,-1.04033 -0.64996,-1.77791 z"
             id="path3384"
             inkscape:connector-curvature="0"
             sodipodi:nodetypes="ssssssscssccccssscsssssssscssssscssssscsscssscsscssssssssssss"
             inkscape:export-xdpi="50.253647"
             inkscape:export-ydpi="50.253647" />
          <g
             id="g3396"
             transform="translate(219.58799)">
            <text
               inkscape:export-ydpi="50.253647"
               inkscape:export-xdpi="50.253647"
               id="text3378"
               y="364.0498"
               x="159.8707"
               style="font-style:normal;font-weight:normal;line-height:0%;font-family:sans-serif;letter-spacing:0px;word-spacing:0px;fill:#483737;fill-opacity:1;stroke:none;stroke-width:1px;stroke-linecap:butt;stroke-linejoin:miter;stroke-opacity:1"
               xml:space="preserve"><tspan
                 y="364.0498"
                 x="159.8707"
                 id="tspan3380"
                 sodipodi:role="line"
                 style="font-size:52.58996964px;line-height:1.25;font-family:sans-serif">raptor<tspan
   id="tspan3382"
   style="font-weight:bold;font-family:sans-serif;fill:#483737" /></tspan></text>
            <text
               inkscape:export-ydpi="50.253647"
               inkscape:export-xdpi="50.253647"
               id="text3386"
               y="364.0498"
               x="321.49243"
               style="font-style:normal;font-weight:normal;line-height:0%;font-family:sans-serif;letter-spacing:0px;word-spacing:0px;fill:#6c5353;fill-opacity:1;stroke:none;stroke-width:1px;stroke-linecap:butt;stroke-linejoin:miter;stroke-opacity:1"
               xml:space="preserve"><tspan
                 y="364.0498"
                 x="321.49243"
                 id="tspan3388"
                 sodipodi:role="line"
                 style="font-size:52.58996964px;line-height:1.25;font-family:sans-serif"><tspan
                   id="tspan3390"
                   style="font-weight:bold;font-family:sans-serif;fill:#6c5353">box</tspan></tspan></text>
          </g>
          <text
             id="text3392"
             y="411.19305"
             x="427.03088"
             style="font-style:normal;font-weight:normal;line-height:0%;font-family:sans-serif;letter-spacing:0px;word-spacing:0px;fill:#483737;fill-opacity:1;stroke:none;stroke-width:1px;stroke-linecap:butt;stroke-linejoin:miter;stroke-opacity:1"
             xml:space="preserve"
             inkscape:export-xdpi="50.253647"
             inkscape:export-ydpi="50.253647"><tspan
               y="411.19305"
               x="427.03088"
               id="tspan3394"
               sodipodi:role="line"
               style="font-size:22.31155968px;line-height:1.25;font-family:sans-serif">the IoT platform</tspan></text>
        </g>
      </g>
      <rect
         style="opacity:0.9;fill:none;fill-opacity:1;stroke:none;stroke-width:0.4971261;stroke-linecap:round;stroke-linejoin:miter;stroke-miterlimit:4;stroke-dasharray:none;stroke-dashoffset:0;stroke-opacity:1"
         id="rect3416"
         width="149.13783"
         height="149.13783"
         x="501.12891"
         y="24.866148" />
    </g>
    <g
       style="opacity:0.7;fill:#ffffff;fill-opacity:1"
       transform="matrix(0.27208265,0,0,0.27208265,333.21565,196.9968)"
       id="g5783">
      <path
         style="fill:#ffffff;fill-opacity:1"
         id="path5775"
         d="m 32.474,63.695 c -1.142,-1.143 -2.996,-1.143 -4.139,0 -1.143,1.143 -1.143,2.994 0,4.137 4.918,4.916 11.377,7.375 17.834,7.375 6.459,0 12.917,-2.459 17.834,-7.375 9.833,-9.832 9.833,-25.833 0,-35.667 -9.834,-9.833 -25.833,-9.833 -35.668,10e-4 -1.143,1.143 -1.143,2.995 0,4.138 1.143,1.142 2.996,1.142 4.14,0 7.551,-7.551 19.838,-7.553 27.39,-0.001 7.552,7.552 7.552,19.839 0,27.392 -7.552,7.551 -19.839,7.551 -27.391,0 z"
         inkscape:connector-curvature="0" />
      <path
         style="fill:#ffffff;fill-opacity:1"
         id="path5777"
         d="m 21.472,71.74 c -0.816,0.814 -0.816,2.139 0,2.955 6.597,6.598 15.367,10.23 24.697,10.23 0.002,0 0,0 0.002,0 9.328,0 18.1,-3.633 24.695,-10.23 13.618,-13.617 13.618,-35.775 0,-49.394 C 64.27,18.705 55.499,15.072 46.169,15.072 c -9.33,0 -18.101,3.632 -24.697,10.229 -0.816,0.816 -0.816,2.14 0,2.956 0.816,0.816 2.141,0.816 2.957,0 11.988,-11.988 31.493,-11.989 43.482,-0.001 11.987,11.989 11.987,31.497 0,43.483 -5.808,5.809 -13.528,9.006 -21.742,9.006 -8.213,0 -15.934,-3.197 -21.74,-9.006 -0.817,-0.815 -2.141,-0.815 -2.957,10e-4 z"
         inkscape:connector-curvature="0" />
      <path
         style="fill:#ffffff;fill-opacity:1"
         id="path5779"
         d="M 77.614,18.554 C 60.275,1.216 32.063,1.216 14.724,18.556 c -0.49,0.489 -0.49,1.284 0,1.773 0.491,0.49 1.283,0.49 1.773,0 16.361,-16.36 42.982,-16.362 59.344,-0.001 16.36,16.361 16.36,42.983 0,59.344 -16.361,16.36 -42.981,16.36 -59.344,-0.002 -0.49,-0.488 -1.282,-0.488 -1.773,0 -0.49,0.49 -0.49,1.283 0,1.773 8.672,8.671 20.059,13.007 31.447,13.005 11.387,0 22.773,-4.336 31.443,-13.003 17.338,-17.34 17.338,-45.552 0,-62.891 z"
         inkscape:connector-curvature="0" />
      <path
         style="fill:#ffffff;fill-opacity:1"
         id="path5781"
         d="m 46.169,60.242 c 5.657,0 10.241,-4.586 10.241,-10.243 0,-5.656 -4.584,-10.241 -10.241,-10.241 -4.482,0 -8.285,2.887 -9.672,6.9 H 9.384 v 6.684 h 27.113 c 1.387,4.013 5.19,6.9 9.672,6.9 z m -0.27,-4.203 c 3.437,0 6.231,-2.795 6.231,-6.23 0,-0.462 0.375,-0.836 0.836,-0.836 0.463,0 0.836,0.374 0.836,0.836 0,4.357 -3.545,7.902 -7.903,7.902 -0.461,0 -0.836,-0.373 -0.836,-0.836 0,-0.461 0.375,-0.836 0.836,-0.836 z"
         inkscape:connector-curvature="0" />
    </g>
    <g
       id="g3745"
       transform="matrix(0.34409747,0,0,0.34409747,457.24731,235.74963)"
       style="opacity:0.45;fill:#6c5353;fill-opacity:1">
      <g
         id="g3735"
         style="fill:#6c5353;fill-opacity:1">
        <path
           inkscape:connector-curvature="0"
           d="M 91.886,20.025 H 69.934 V 4.614 C 69.934,2.076 67.869,0 65.32,0 H 34.613 C 32.064,0 29.999,2.076 29.999,4.614 V 20.025 H 8.047 c -2.549,0 -4.614,2.065 -4.614,4.614 0,2.549 2.065,4.614 4.614,4.614 h 7.117 v 66.132 c 0,2.549 2.065,4.614 4.614,4.614 h 60.376 c 2.549,0 4.614,-2.065 4.614,-4.614 V 29.254 h 7.117 c 2.549,0 4.614,-2.065 4.614,-4.614 0.001,-2.55 -2.064,-4.615 -4.613,-4.615 z M 39.227,9.228 H 60.706 V 20.025 H 39.227 Z M 75.54,90.772 H 24.392 V 29.254 H 75.54 Z"
           id="path3733"
           style="fill:#6c5353;fill-opacity:1" />
      </g>
      <g
         id="g3739"
         style="fill:#6c5353;fill-opacity:1">
        <path
           inkscape:connector-curvature="0"
           d="m 60.133,85.39 c -2.548,0 -4.614,-2.066 -4.614,-4.614 V 39.248 c 0,-2.548 2.066,-4.614 4.614,-4.614 2.548,0 4.614,2.066 4.614,4.614 v 41.527 c 0,2.549 -2.066,4.615 -4.614,4.615 z"
           id="path3737"
           style="fill:#6c5353;fill-opacity:1" />
      </g>
      <g
         id="g3743"
         style="fill:#6c5353;fill-opacity:1">
        <path
           inkscape:connector-curvature="0"
           d="m 39.799,85.39 c -2.548,0 -4.614,-2.066 -4.614,-4.614 V 39.248 c 0,-2.548 2.066,-4.614 4.614,-4.614 2.548,0 4.614,2.066 4.614,4.614 v 41.527 c 0.001,2.549 -2.065,4.615 -4.614,4.615 z"
           id="path3741"
           style="fill:#6c5353;fill-opacity:1" />
      </g>
    </g>
    <g
       id="g3772"
       transform="matrix(0.27804532,0,0,0.27804532,379.58362,242.35646)"
       style="opacity:0.45;fill:#6c5353;fill-opacity:1">
      <path
         inkscape:connector-curvature="0"
         d="M 88,49.917 C 88,47.56 86.213,45.62 83.92,45.376 V 9.106 C 86.213,8.863 88,6.924 88,4.566 88,2.044 85.955,0 83.433,0 H 16.567 C 14.045,0 12,2.044 12,4.566 c 0,2.357 1.787,4.297 4.08,4.54 v 36.27 C 13.787,45.619 12,47.559 12,49.917 c 0,2.357 1.787,4.297 4.08,4.54 V 90.893 C 13.787,91.136 12,93.077 12,95.433 12,97.955 14.044,100 16.566,100 H 83.432 C 85.955,100 88,97.955 88,95.433 88,93.077 86.213,91.137 83.92,90.893 V 54.457 C 86.213,54.214 88,52.273 88,49.917 Z M 49.515,27.196 c 4.467,0 8.653,1.199 12.257,3.29 l -9.314,16.08 c -0.865,-0.502 -1.87,-0.792 -2.942,-0.792 -1.072,0 -2.077,0.289 -2.942,0.792 L 37.26,30.486 c 3.601,-2.091 7.788,-3.29 12.255,-3.29 z M 37.26,72.804 C 29.969,68.573 25.066,60.682 25.066,51.645 h 18.579 c 0,2.17 1.178,4.064 2.929,5.079 z m 12.15,-17.51 c -2.048,0 -3.708,-1.66 -3.708,-3.709 0,-2.048 1.66,-3.709 3.708,-3.709 2.048,0 3.709,1.661 3.709,3.709 0,2.049 -1.661,3.709 -3.709,3.709 z m 12.362,17.508 -9.314,-16.08 c 1.749,-1.016 2.927,-2.908 2.927,-5.077 h 18.578 c 0,9.035 -4.902,16.925 -12.191,21.157 z"
         id="path3770"
         style="fill:#6c5353;fill-opacity:1" />
    </g>
    <g
       id="g3776"
       transform="matrix(0.28309885,0,0,0.28309885,1140.1995,579.00343)"
       style="opacity:0.45;fill:#6c5353;fill-opacity:1">
      <path
         inkscape:connector-curvature="0"
         d="m -3104,-1374 c 0,-2.431 -8.793,-4.146 -9.156,-6.475 -0.377,-2.39 7.452,-6.728 6.721,-8.979 -0.742,-2.291 -9.634,-1.2 -10.716,-3.316 -1.09,-2.139 5.007,-8.696 3.604,-10.622 -1.409,-1.937 -9.528,1.847 -11.217,0.156 -1.689,-1.688 2.095,-9.806 0.157,-11.214 -1.927,-1.404 -8.484,4.693 -10.621,3.602 -2.118,-1.081 -1.025,-9.969 -3.317,-10.714 -2.253,-0.732 -6.591,7.097 -8.981,6.721 -2.328,-0.367 -4.043,-9.158 -6.475,-9.158 -2.432,0 -4.146,8.791 -6.474,9.158 -2.391,0.375 -6.729,-7.455 -8.98,-6.723 -2.291,0.744 -1.2,9.635 -3.316,10.715 -2.139,1.093 -8.695,-5.005 -10.623,-3.602 -1.936,1.409 1.848,9.527 0.159,11.216 -1.69,1.689 -9.807,-2.095 -11.215,-0.158 -1.404,1.928 4.692,8.483 3.6,10.622 -1.081,2.117 -9.97,1.025 -10.714,3.317 -0.731,2.252 7.098,6.59 6.722,8.98 -0.366,2.328 -9.157,4.044 -9.157,6.475 0,2.432 8.791,4.147 9.155,6.475 0.377,2.39 -7.452,6.729 -6.721,8.98 0.744,2.291 9.634,1.199 10.714,3.316 1.093,2.14 -5.005,8.694 -3.603,10.622 1.412,1.937 9.526,-1.849 11.216,-0.158 1.691,1.69 -2.095,9.806 -0.159,11.215 1.929,1.404 8.484,-4.692 10.622,-3.6 2.119,1.082 1.027,9.971 3.318,10.715 2.252,0.73 6.59,-7.099 8.981,-6.723 2.328,0.366 4.043,9.157 6.474,9.157 2.431,0 4.147,-8.791 6.475,-9.157 2.391,-0.376 6.727,7.454 8.98,6.723 2.291,-0.743 1.2,-9.634 3.316,-10.715 2.14,-1.09 8.693,5.006 10.624,3.602 1.936,-1.409 -1.85,-9.526 -0.159,-11.216 1.69,-1.688 9.805,2.095 11.215,0.158 1.404,-1.929 -4.693,-8.483 -3.601,-10.621 1.083,-2.118 9.971,-1.026 10.716,-3.317 0.729,-2.252 -7.098,-6.591 -6.722,-8.981 0.365,-2.329 9.158,-4.044 9.158,-6.476 z m -45.589,32.078 v -5.19 h 3.255 v -7.389 l 9.142,-11.518 v -10.975 h -4.581 v -14.592 c 0.01,-2.092 -1.61,-3.781 -3.705,-3.771 -2.094,0.01 -3.867,1.715 -3.878,3.808 v 14.556 h -9.287 v -14.556 c -0.01,-2.092 -1.784,-3.797 -3.878,-3.808 -2.095,-0.01 -3.714,1.68 -3.705,3.771 v 14.592 h -4.581 v 10.975 l 9.142,11.518 v 7.389 h 3.255 v 5.19 c -15.794,-2.152 -27.966,-15.691 -27.966,-32.078 0,-17.881 14.496,-32.376 32.376,-32.376 17.882,0 32.378,14.495 32.378,32.376 0,16.387 -12.172,29.926 -27.967,32.078 z"
         id="path3774"
         style="fill:#6c5353;fill-opacity:1" />
    </g>
    <g
       id="g3802"
       transform="matrix(0.59155249,0,0,0.59155249,453.49646,157.93355)"
       style="opacity:0.55;fill:#6c5353;fill-opacity:1">
      <path
         inkscape:connector-curvature="0"
         d="M 94.1,55.3 C 91.1,46.2 81.3,41.4 72.2,44.2 l -5,-11.3 1.3,-3.5 h 4 V 25.9 H 57.8 c -0.8,0 -1.3,1.5 -0.2,1.7 l 7.3,1.7 -1.3,3.5 H 32.7 L 34,28.3 c 1,-3.3 6.3,-2.5 9,-2.5 v -3.5 c -4.6,0 -10.6,-0.8 -12.3,5 l -5,16.3 C 17.6,41.9 9.6,46.3 6.3,53.7 2.6,62.5 6.6,72.6 15.4,76.4 24.2,80.1 34.3,76.1 38.1,67.3 41.8,58.5 37.8,48.4 28.8,44.6 L 30.1,40.1 46,57.7 c 0,0.2 0,0.3 0,0.7 0,3 2.3,5.3 5.3,5.3 0.2,0 0.2,0 0.3,0 l 1.7,3.2 -1.7,1 1.2,2.2 5.8,-3.2 -1.2,-2.2 -2,1.2 -1,-2 h 6.1 c 2,10 12.4,16.3 22.4,12.9 9.2,-2.6 14.2,-12.4 11.2,-21.5 z M 34.9,66.4 c -3.2,7 -11.4,10.1 -18.3,7 -7,-3.2 -10.1,-11.3 -7,-18.3 2.7,-5.6 8.8,-9 14.9,-7.8 l -4,12.9 c -0.7,2.2 2.7,3.2 3.3,1 l 4.1,-13.1 c 7.2,3.2 10.1,11.4 7,18.3 z m 10.9,-14.1 0.3,-0.2 0.8,1.5 z m 5.9,1 c -0.7,0 -1.3,0.2 -2,0.3 l -1.3,-2.5 1.7,-1 L 48.8,48 44.2,50.5 31.6,36.4 h 30.7 l -6.8,18.3 c -1,-0.9 -2.4,-1.4 -3.8,-1.4 z m 8.7,7.5 H 57 l 8.6,-23.1 3.5,8 c -5.3,3.1 -8.7,8.8 -8.7,15.1 z m 10.2,-12 5.3,11.8 h -12 c -0.1,-4.8 2.5,-9.3 6.7,-11.8 z M 81.5,74.1 C 74.4,76.3 65.6,71.8 64.1,64.3 h 14.3 c 1.2,0 2.2,-1.3 1.7,-2.5 L 73.6,47.5 c 7.3,-2.2 15.1,2 17.3,9.3 2.2,7.3 -1.9,15.1 -9.4,17.3 z"
         id="path3798"
         style="fill:#6c5353;fill-opacity:1" />
      <polygon
         points="45.8,52.3 47,53.7 46.2,52.2 "
         id="polygon3800"
         style="fill:#6c5353;fill-opacity:1" />
    </g>
    <g
       id="g3835"
       transform="matrix(0.55433681,0,0,0.55433681,317.86842,238.74357)"
       style="opacity:0.55;fill:#6c5353;fill-opacity:1">
      <g
         id="g3833"
         style="fill:#6c5353;fill-opacity:1">
        <path
           inkscape:connector-curvature="0"
           d="m 65.4,51.8 c -9.7,0 -17.5,7.8 -17.5,17.5 0,9.7 7.8,17.5 17.5,17.5 9.5,0 17.4,-7.8 17.4,-17.5 0,-9.7 -7.8,-17.5 -17.4,-17.5 z m 0,26.9 c -5.1,0 -9.3,-4.2 -9.3,-9.5 0,-5.1 4.2,-9.3 9.3,-9.3 5.1,0 9.3,4.2 9.3,9.3 0.1,5.3 -4.1,9.5 -9.3,9.5 z"
           id="path3823"
           style="fill:#6c5353;fill-opacity:1" />
        <path
           inkscape:connector-curvature="0"
           d="M 18.5,59.6 C 10.9,59.6 5,65.7 5,73.2 5,80.8 11.1,86.7 18.5,86.7 25.9,86.7 32,80.6 32,73.2 32.3,65.7 26.2,59.6 18.5,59.6 Z m 0,21.4 c -4.4,0 -7.8,-3.4 -7.8,-7.8 0,-4.2 3.4,-7.8 7.8,-7.8 4.4,0 7.8,3.4 7.8,7.8 0.1,4.4 -3.4,7.8 -7.8,7.8 z"
           id="path3825"
           style="fill:#6c5353;fill-opacity:1" />
        <path
           inkscape:connector-curvature="0"
           d="m 90.6,60.6 c 0,-13 -8.4,-21.9 -20.2,-24 v -2.9 c 0,-1.1 -1,-4.6 -2.1,-5.1 1.1,-1 1.9,-2.3 1.9,-3.8 0,-2.7 -2.1,-4.8 -4.8,-4.8 -2.7,0 -4.8,2.1 -4.8,4.8 0,2.3 1.7,4.2 3.8,4.8 -1.7,1.3 -3.1,4.6 -3.1,6.5 v 0.2 H 59.2 C 55.6,36.3 51.8,38 48.9,40.7 46,38 42.2,36.3 38.6,36.3 H 24.4 V 25.9 H 22.3 V 13.1 h -3.6 v 12.8 h -2.1 v 11.3 c -5.1,2.1 -9.7,7.1 -9.7,12.2 v 9.9 c 3.1,-2.7 7.2,-4.2 11.6,-4.2 8.6,0 15.8,6.1 17.7,14.3 H 44 v 0 c 0,-11.6 9.5,-21.2 21.4,-21.2 10.1,0 18.7,7.2 20.8,16.8 H 95 v -4.4 z"
           id="path3827"
           style="fill:#6c5353;fill-opacity:1" />
        <path
           inkscape:connector-curvature="0"
           d="m 65.4,63.6 c -3.1,0 -5.7,2.5 -5.7,5.5 0,3.1 2.5,5.7 5.7,5.7 3.1,0 5.5,-2.5 5.5,-5.7 0.1,-3 -2.4,-5.5 -5.5,-5.5 z"
           id="path3829"
           style="fill:#6c5353;fill-opacity:1" />
        <path
           inkscape:connector-curvature="0"
           d="m 18.5,69.2 c -2.3,0 -4,1.9 -4,4 0,2.3 1.7,4 4,4 2.3,0 4,-1.9 4,-4 0.2,-2.3 -1.7,-4 -4,-4 z"
           id="path3831"
           style="fill:#6c5353;fill-opacity:1" />
      </g>
    </g>
    <path
       style="clip-rule:evenodd;opacity:0.6;fill:#6c5353;fill-opacity:1;fill-rule:evenodd;stroke-width:0.23777024"
       inkscape:connector-curvature="0"
       d="m 394.49826,189.33553 v 6.39411 h -8.79203 v -6.39411 z m 16.36692,10.41552 h -11.39965 c -1.91715,0 -3.485,-1.56809 -3.485,-3.485 v -7.46693 c 0,-1.91715 1.56785,-3.48501 3.485,-3.48501 h 1.72597 v -3.32331 c -3.34614,-1.37621 -5.63801,-4.52951 -5.63801,-8.73401 0,-5.30797 4.30387,-9.61162 9.61186,-9.61162 5.30822,0 9.61163,4.30365 9.61163,9.61162 0,3.81764 -1.88362,6.80807 -4.79345,8.34859 v 3.7085 h 0.88142 c 1.91713,0 3.48498,1.56809 3.48498,3.48499 v 7.46694 c 2.5e-4,1.91715 -1.56785,3.48524 -3.48475,3.48524 z m -5.03693,-25.61783 c 1.02741,-0.71974 0.39019,-2.33182 -0.84004,-2.17774 l -3.85235,-4.54806 2.93337,5.1917 c -0.56542,1.10326 0.73162,2.25358 1.75902,1.5341 z m -8.29176,-0.87643 c 0,4.6068 3.33568,7.51283 7.62886,7.51283 4.38021,0 7.62886,-2.97712 7.62886,-7.51283 0,-4.21352 -3.41509,-7.62861 -7.62862,-7.62861 -4.21353,-2.4e-4 -7.6291,3.41509 -7.6291,7.62861 z m 27.08798,16.07874 v 6.39411 h -8.79203 v -6.39411 z"
       id="path3891" />
    <path
       style="clip-rule:evenodd;opacity:0.6;fill:#6c5353;fill-opacity:1;fill-rule:evenodd;stroke-width:0.23439433"
       inkscape:connector-curvature="0"
       d="m 154.59893,252.11472 c -0.36917,-0.37362 -0.36917,-0.98516 0,-1.35877 0.37012,-0.37456 0.97579,-0.37456 1.3459,0 0.36917,0.37361 0.36917,0.98515 0,1.35877 -0.37011,0.37433 -0.97578,0.37433 -1.3459,0 z m 2.47474,0 c -0.36917,-0.37362 -0.36917,-0.98516 0,-1.35877 0.37011,-0.37456 0.97578,-0.37456 1.3459,0 0.36917,0.37361 0.36917,0.98515 0,1.35877 -0.37012,0.37433 -0.97579,0.37433 -1.3459,0 z m -4.94197,0 c -0.36893,-0.37362 -0.36893,-0.98516 0,-1.35877 0.36987,-0.37456 0.97603,-0.37456 1.34589,0 0.36871,0.37361 0.36871,0.98515 0,1.35877 -0.37012,0.37433 -0.97602,0.37456 -1.34589,0 z m 18.78319,0.0657 h -6.79251 c -0.0624,0 -0.11462,-0.0349 -0.11462,-0.078 v -1.40213 c 0,-0.0432 0.0515,-0.078 0.11462,-0.078 h 6.79251 c 0.0632,0 0.11462,0.0356 0.11462,0.078 v 1.40213 c 0,0.0425 -0.0523,0.078 -0.11462,0.078 z m 6.80915,0.7545 c 1.03275,-1.03297 1.03275,-2.7063 0,-3.73927 -1.03274,-1.03298 -2.70631,-1.03298 -3.73929,0 -1.03274,1.03297 -1.03297,2.7063 0,3.73951 1.03274,1.0325 2.70608,1.03273 3.73929,-2.4e-4 z m -28.34436,-6.2569 v 9.0251 h 30.42954 V 246.678 c 0,-0.0806 -0.20346,-0.1465 -0.45262,-0.1465 h -29.52407 c -0.2494,0 -0.45285,0.0659 -0.45285,0.1465 z m 8.98292,22.7639 c 0,-8.19701 12.4637,-8.19701 12.4637,0 0,8.197 -12.4637,8.197 -12.4637,0 z m -0.94555,0 c 0,9.44046 14.35478,9.44046 14.35478,0 0,-9.44048 -14.35478,-9.44048 -14.35478,0 z m 13.72169,6.54405 c 3.61483,-3.61506 3.61506,-9.47328 0,-13.08811 -3.6153,-3.61507 -9.47305,-3.61507 -13.08812,0 -3.61506,3.61483 -3.61529,9.47282 -2.3e-4,13.08787 3.61506,3.61507 9.47305,3.6153 13.08835,2.4e-4 z m 8.67048,-18.64935 h -30.42954 v 27.12224 c 0,0.24096 0.20368,0.43808 0.45285,0.43808 h 29.52407 c 0.24916,0 0.45262,-0.19712 0.45262,-0.43808 z"
       id="path3910" />
    <g
       transform="matrix(0.57853209,0,0,0.57853209,33.034357,-335.80588)"
       id="g3931"
       style="opacity:0.7;fill:#6c5353;fill-opacity:1">
      <path
         inkscape:connector-curvature="0"
         style="color:#000000;text-indent:0;text-transform:none;direction:ltr;baseline-shift:baseline;display:inline;overflow:visible;visibility:visible;fill:#6c5353;fill-opacity:1;stroke:none;stroke-width:0.55527598;enable-background:accumulate"
         d="m 109.31432,1023.1413 c -0.13104,0.01 -0.26096,0.035 -0.38175,0.087 l -19.434658,8.8844 c -0.624741,0.2843 -0.773349,1.1938 -0.381752,1.7352 l 6.038627,7.0624 -6.038627,7.0451 c -0.3634,0.5104 -0.242989,1.4508 0.381752,1.7352 l 6.021275,2.7591 v 15.1041 c 0.0033,0.4238 0.272107,0.8342 0.65939,1.0064 l 19.972583,8.8844 c 0.28302,0.1258 0.6193,0.1258 0.90232,0 l 20.00729,-8.8844 c 0.38728,-0.1722 0.65617,-0.5826 0.65939,-1.0064 v -15.1041 l 6.02128,-2.7591 c 0.62473,-0.2844 0.82944,-1.2149 0.38175,-1.7352 l -6.03863,-7.0451 6.03863,-7.0624 c 0.44769,-0.5203 0.24298,-1.4509 -0.38175,-1.7352 l -19.43466,-8.8844 c -0.17364,-0.076 -0.36685,-0.1059 -0.55528,-0.087 -0.27466,0.02 -0.54019,0.1464 -0.7288,0.347 l -6.40303,6.8889 -6.40302,-6.8889 c -0.22808,-0.2432 -0.57007,-0.3747 -0.90233,-0.347 z m -0.17352,2.4467 5.60482,6.0386 -17.803538,7.93 -5.171008,-6.0212 z m 14.95775,0 17.36973,7.9474 -5.17101,6.0212 -17.80354,-7.93 z m -7.47888,7.6523 17.24827,7.6698 -17.24827,7.6524 -17.248256,-7.6524 z m -19.677588,9.0059 17.803538,7.9301 -5.60482,6.0386 -17.369726,-7.9474 z m 39.355188,0 5.17101,6.0213 -17.36973,7.9474 -5.60482,-6.0386 z m -20.78815,10.3768 v 22.0971 l -17.768829,-7.8953 v -13.3689 l 11.192279,5.119 c 0.42441,0.195 0.96912,0.085 1.28408,-0.2603 z m 2.22111,0 5.29247,5.6916 c 0.31495,0.3449 0.85967,0.4553 1.28408,0.2603 l 11.19228,-5.119 v 13.3689 l -17.76883,7.8779 z"
         marker="none"
         visibility="visible"
         display="inline"
         overflow="visible"
         id="path3929" />
    </g>
    <path
       inkscape:connector-curvature="0"
       d="m 68.548054,254.4156 -4.054356,-4.05436 c -1.469208,-1.4692 -3.853655,-1.4692 -5.322863,0 -1.710058,1.71006 -0.947355,3.8938 -0.658332,4.4317 L 47.208447,266.097 h -5.025808 c -0.626219,0 -1.132011,0.50579 -1.132011,1.13201 v 9.88302 h -5.21849 c -0.513822,0 -0.955386,0.34523 -1.091871,0.83496 l -2.488819,9.11229 c -0.09634,0.33719 -0.08831,1.42906 1.09187,1.42906 0,0 27.738287,0 27.738287,0 0.88313,0 1.132013,-0.50579 1.132013,-1.13201 0,-0.16057 -2.536989,-9.40934 -2.536989,-9.40934 -0.136487,-0.48973 -0.578048,-0.83496 -1.091871,-0.83496 h -5.21849 v -8.91158 l 9.160457,-9.16046 0.698477,0.69848 c 0.224795,2.49685 2.328251,4.45578 4.881302,4.45578 0.62621,0 1.132011,-0.50578 1.132011,-1.13201 0,-0.62621 -0.505801,-1.13201 -1.132011,-1.13201 -1.45315,0 -2.633338,-1.18018 -2.633338,-2.63333 0,-1.45314 1.180188,-2.63332 2.633338,-2.63332 1.453141,0 2.633331,1.18018 2.633331,2.63332 0,0.62622 0.50578,1.13201 1.132,1.13201 0.62622,0 1.13202,-0.50579 1.13202,-1.13201 0,-2.55305 -1.96697,-4.6565 -4.455801,-4.8813 z m -25.225376,13.94542 h 7.787594 v 8.75101 h -7.787594 z m 14.403036,11.01504 1.870628,6.84023 H 34.82858 l 1.870629,-6.84023 z M 52.274397,266.097 c -0.008,0 -0.0241,0 -0.03211,0 h -1.822458 l 9.577938,-9.58597 0.931302,0.9313 z m 11.472654,-9.04004 -2.978555,-2.97855 c -0.345223,-0.34522 -0.746646,-1.37286 0,-2.11951 0.586077,-0.58607 1.533434,-0.58607 2.119512,0 l 2.978552,2.97856 c -0.907213,0.47367 -1.653861,1.2123 -2.119509,2.1195 z"
       id="path4030"
       style="opacity:0.7;fill:#6c5353;fill-opacity:1;stroke-width:0.08028448" />
    <path
       style="opacity:0.55;fill:#6c5353;fill-opacity:1;fill-rule:evenodd;stroke-width:1.9976238"
       inkscape:connector-curvature="0"
       data-name="3"
       class="cls-1"
       d="m 253.11995,259.69369 h -27.96667 l 0.0226,-5.99288 h -6.0168 v 5.99288 h -1.99766 l 0.0152,-11.98575 h -6.00487 v 11.98575 h -5.99288 v 27.96672 h 47.94299 z m -41.95009,5.99286 h 5.99286 v 5.99286 h -5.99286 z m 0,9.98811 h 5.99286 v 5.99288 h -5.99286 z m 9.98815,-9.98811 h 5.99285 v 5.99286 h -5.99285 z m 0,9.98811 h 5.99285 v 5.99288 h -5.99285 z m 9.98814,-9.98811 h 5.99286 v 5.99286 h -5.99286 z m 0,9.98811 h 5.99286 v 5.99288 h -5.99286 z m 9.98807,-9.98811 h 5.99287 v 5.99286 h -5.99287 z m 0,9.98811 h 5.99287 v 5.99288 h -5.99287 z"
       id="path4053" />
    <g
       style="opacity:0.7;fill:#6c5353;fill-opacity:1;fill-rule:evenodd;stroke:none;stroke-width:1"
       id="g4103"
       transform="matrix(-0.77710424,0,0,0.77710424,525.79633,211.06045)">
      <g
         style="fill:#6c5353;fill-opacity:1"
         transform="translate(-601,-829)"
         id="g4101">
        <g
           transform="translate(601,829)"
           id="g4099"
           style="fill:#6c5353;fill-opacity:1">
          <path
             inkscape:connector-curvature="0"
             d="m 1,60 h 32 c 0.552285,0 1,-0.447715 1,-1 v -4 c 0,-0.552285 -0.447715,-1 -1,-1 H 1 c -0.55228475,0 -1,0.447715 -1,1 v 4 c 0,0.552285 0.44771525,1 1,1 z m 1,-4 h 30 v 2 H 2 Z"
             id="path4075"
             style="fill:#6c5353;fill-opacity:1" />
          <path
             inkscape:connector-curvature="0"
             d="m 3,56 h 28 c 0.552285,0 1,-0.447715 1,-1 v -4 c 0,-0.552285 -0.447715,-1 -1,-1 H 3 c -0.5522847,0 -1,0.447715 -1,1 v 4 c 0,0.552285 0.4477153,1 1,1 z m 1,-4 h 26 v 2 H 4 Z"
             id="path4077"
             style="fill:#6c5353;fill-opacity:1" />
          <path
             inkscape:connector-curvature="0"
             d="m 5,52 h 24 c 0.552285,0 1,-0.447715 1,-1 v -4 c 0,-0.552285 -0.447715,-1 -1,-1 H 5 c -0.5522848,0 -1,0.447715 -1,1 v 4 c 0,0.552285 0.4477152,1 1,1 z m 1,-4 h 22 v 2 H 6 Z"
             id="path4079"
             style="fill:#6c5353;fill-opacity:1" />
          <path
             inkscape:connector-curvature="0"
             d="m 17,34 c -2.747715,0 -5,-2.252285 -5,-5 V 7 c 0,-2.7477153 2.252285,-5 5,-5 2.747715,0 5,2.2522847 5,5 v 22 c 0,2.747715 -2.252285,5 -5,5 z m 0,2 c 3.852285,0 7,-3.147715 7,-7 V 7 C 24,3.1477153 20.852285,0 17,0 13.147715,0 10,3.1477153 10,7 v 22 c 0,3.852285 3.147715,7 7,7 z"
             id="path4081"
             style="fill:#6c5353;fill-opacity:1" />
          <path
             inkscape:connector-curvature="0"
             d="m 22,27 v 1.775 c 0,2.606134 -1.861372,4.854334 -4.324346,5.180663 C 14.659665,34.354219 12,32.000873 12,29 v -2 c 0,-0.552285 -0.447715,-1 -1,-1 -2.7612847,0 -5,2.238715 -5,5 v 16 c 0,0.552285 0.4477152,1 1,1 h 20 c 0.552285,0 1,-0.447715 1,-1 V 31 c 0,-2.761285 -2.238715,-5 -5,-5 -0.552285,0 -1,0.447715 -1,1 z m 4,4 V 46 H 8 V 31 c 0,-1.306089 0.8348678,-2.417377 2,-2.82926 V 29 c 0,4.205149 3.719088,7.495902 7.938009,6.938381 C 21.420189,35.477013 24,32.361069 24,28.775 v -0.60426 c 1.165132,0.411883 2,1.523171 2,2.82926 z"
             id="path4083"
             style="fill:#6c5353;fill-opacity:1" />
          <path
             inkscape:connector-curvature="0"
             d="m 50,6 c 0,1.6567153 -1.343285,3 -3,3 -1.656715,0 -3,-1.3432847 -3,-3 0,-1.6567153 1.343285,-3 3,-3 1.656715,0 3,1.3432847 3,3 z m 2,0 c 0,-2.7612848 -2.238715,-5 -5,-5 -2.761285,0 -5,2.2387152 -5,5 0,2.7612848 2.238715,5 5,5 2.761285,0 5,-2.2387152 5,-5 z"
             id="path4085"
             style="fill:#6c5353;fill-opacity:1" />
          <path
             inkscape:connector-curvature="0"
             d="M 21.31979,4.5029599 C 21.763373,5.2652325 22.0001,6.1178326 22.0001,7 v 1 c 0,0.5522848 0.447715,1 1,1 h 20.555 C 44.326797,9 44.80768,8.1629686 44.418985,7.4963111 44.144974,7.02635 44.0001,6.5198588 44.0001,6 c 0,-0.5198588 0.144874,-1.02635 0.418885,-1.4963111 C 44.80768,3.8370314 44.326797,3 43.5551,3 H 22.1841 C 21.412778,3 20.931846,3.8362991 21.31979,4.5029599 Z M 42.105299,5 C 42.035913,5.3265851 42.0001,5.6608852 42.0001,6 c 0,0.3391148 0.03581,0.6734149 0.105199,1 H 24.0001 c 0,-0.6846821 -0.101354,-1.3565731 -0.296195,-2 z"
             id="path4087"
             style="fill:#6c5353;fill-opacity:1" />
          <path
             inkscape:connector-curvature="0"
             d="m 14,40 h 6 c 0.552285,0 1,-0.447715 1,-1 0,-0.552285 -0.447715,-1 -1,-1 h -6 c -0.552285,0 -1,0.447715 -1,1 0,0.552285 0.447715,1 1,1 z"
             id="path4089"
             style="fill:#6c5353;fill-opacity:1" />
          <path
             inkscape:connector-curvature="0"
             d="m 12,44 h 10 c 0.552285,0 1,-0.447715 1,-1 0,-0.552285 -0.447715,-1 -1,-1 H 12 c -0.552285,0 -1,0.447715 -1,1 0,0.552285 0.447715,1 1,1 z"
             id="path4091"
             style="fill:#6c5353;fill-opacity:1" />
          <path
             inkscape:connector-curvature="0"
             d="m 44,19 h 6 V 9 h -6 z m 2,-2 v -6 h 2 v 6 z"
             id="path4093"
             style="fill:#6c5353;fill-opacity:1" />
          <path
             inkscape:connector-curvature="0"
             d="m 46,23 h 2 v 5 c 0,0.552285 0.447715,1 1,1 h 4 c 0.552285,0 1,-0.447715 1,-1 V 20.57 C 54,18.598715 52.401285,17 50.43,17 H 43.57 C 41.598715,17 40,18.598715 40,20.57 V 28 c 0,0.552285 0.447715,1 1,1 h 4 c 0.552285,0 1,-0.447715 1,-1 z m 6,4 h -2 v -5 c 0,-0.552285 -0.447715,-1 -1,-1 h -4 c -0.552285,0 -1,0.447715 -1,1 v 5 H 42 V 20.57 C 42,19.703285 42.703285,19 43.57,19 h 6.86 c 0.866715,0 1.57,0.703285 1.57,1.57 z"
             id="path4095"
             style="fill:#6c5353;fill-opacity:1" />
          <path
             inkscape:connector-curvature="0"
             d="m 16,6 v 24 c 0,0.552285 0.447715,1 1,1 0.552285,0 1,-0.447715 1,-1 V 6 C 18,5.4477152 17.552285,5 17,5 16.447715,5 16,5.4477152 16,6 Z"
             id="path4097"
             style="fill:#6c5353;fill-opacity:1" />
        </g>
      </g>
    </g>
    <g
       id="g4536"
       transform="matrix(1.9465846,0,0,1.9465846,-1164.073,24.543534)"
       style="opacity:0.45;fill:#6c5353;fill-opacity:1">
      <path
         style="fill:#6c5353;fill-opacity:1;stroke-width:0.26458332"
         id="path4136"
         d="m 764.9908,81.258504 c -1.21708,-1.217083 -2.61938,-2.2225 -4.15396,-2.989792 l -0.66146,1.322917 c 1.16417,0.582083 2.24896,1.322917 3.22792,2.2225 l -5.34458,5.318125 c -1.24355,-1.031875 -2.80459,-1.5875 -4.445,-1.5875 -0.58209,0 -1.13771,0.07937 -1.66688,0.211666 l -3.46604,-6.799791 c 1.61396,-0.608542 3.36021,-0.926042 5.13292,-0.926042 0.635,0 1.24354,0.05292 1.87854,0.105834 l 0.18521,-1.481667 c -0.68792,-0.07937 -1.37584,-0.132292 -2.06375,-0.132292 -4.28625,0 -8.33438,1.666875 -11.37709,4.709584 l -0.52916,0.529166 7.43479,7.434792 0.52916,-0.529167 c 0.4498,-0.449792 0.97896,-0.820208 1.56105,-1.084792 l 0.89958,1.772709 c -0.3175,0.343958 -0.50271,0.820208 -0.50271,1.322916 0,1.11125 0.89958,2.010834 2.01083,2.010834 1.11125,0 2.01084,-0.899584 2.01084,-2.010834 0,-1.11125 -0.89959,-2.010833 -2.01084,-2.010833 -0.0529,0 -0.13229,0 -0.1852,0 l -0.79375,-1.561042 c 0.3175,-0.05292 0.635,-0.07937 0.97895,-0.07937 1.48167,0 2.91042,0.582084 3.96875,1.640417 l 0.52917,0.529167 7.38188,-7.408333 z m -15.82208,5.87375 -5.34459,-5.318125 c 1.00542,-0.899583 2.11667,-1.666875 3.30729,-2.248958 l 3.41313,6.720416 c -0.50271,0.238125 -0.9525,0.502708 -1.37583,0.846667 z"
         inkscape:connector-curvature="0" />
      <path
         style="fill:#6c5353;fill-opacity:1;stroke-width:0.26458332"
         id="path4138"
         d="m 757.84705,82.184546 c 0.47625,0 0.92604,-0.211667 1.24354,-0.608542 0.29104,-0.343958 0.42333,-0.820208 0.34396,-1.402292 -0.0265,-0.370416 -0.15875,-0.740833 -0.23813,-0.978958 -0.10583,-0.264583 -0.3175,-0.899583 -0.66145,-1.825625 l -0.68792,-1.931458 -0.68792,1.852083 c -0.0265,0.05292 -0.52916,1.402292 -0.68791,1.878542 -0.0794,0.238125 -0.18521,0.582083 -0.23813,0.978958 -0.0529,0.582083 0.0529,1.058333 0.34396,1.402292 0.3175,0.396875 0.79375,0.635 1.27,0.635 z"
         inkscape:connector-curvature="0" />
    </g>
    <g
       transform="matrix(5.1271135,0,0,5.1271135,172.36232,-1310.3655)"
       id="g4209"
       style="opacity:0.7;fill:#6c5353;fill-opacity:1">
      <path
         inkscape:connector-curvature="0"
         d="m 0.52916596,291.3085 v 2.63989 H 0.7937493 v -1.18795 h 0.396875 v -0.26399 h -0.396875 v -1.18795 z"
         style="color:#000000;font-style:normal;font-variant:normal;font-weight:normal;font-stretch:normal;font-size:medium;line-height:normal;font-family:sans-serif;text-indent:0;text-align:start;text-decoration:none;text-decoration-line:none;text-decoration-style:solid;text-decoration-color:#000000;letter-spacing:normal;word-spacing:normal;text-transform:none;writing-mode:lr-tb;direction:ltr;baseline-shift:baseline;text-anchor:start;white-space:normal;clip-rule:nonzero;display:inline;overflow:visible;visibility:visible;opacity:1;isolation:auto;mix-blend-mode:normal;color-interpolation:sRGB;color-interpolation-filters:linearRGB;solid-color:#000000;solid-opacity:1;fill:#6c5353;fill-opacity:1;fill-rule:evenodd;stroke:none;stroke-width:0.99999994px;stroke-linecap:butt;stroke-linejoin:miter;stroke-miterlimit:4;stroke-dasharray:none;stroke-dashoffset:0;stroke-opacity:1;color-rendering:auto;image-rendering:auto;shape-rendering:auto;text-rendering:auto;enable-background:accumulate"
         id="path4201" />
      <path
         inkscape:connector-curvature="0"
         style="fill:#6c5353;fill-opacity:1;fill-rule:evenodd;stroke:none"
         d="m 2.9190996,290.64861 c -0.046471,0 -0.089784,0.024 -0.1136888,0.0639 l -0.3581162,0.59604 H 1.5212529 c -0.073062,0 -0.1322916,0.0591 -0.1322916,0.13199 v 2.3759 c 0,0.0729 0.05923,0.132 0.1322916,0.132 h 0.7405212 c 0.1201632,0 0.2363867,0.0406 0.3302132,0.11549 l 0.3720703,0.29699 c 0.093827,0.0749 0.2100554,0.11549 0.3302133,0.11549 h 0.1891347 c 0.051419,-0.1821 0.1470766,-0.35327 0.2868057,-0.47433 v -1.69169 c 0,-0.37999 0.3136927,-0.69298 0.6945313,-0.69298 0.3872468,0 0.6858397,0.39295 0.6945313,0.69298 l 0.00106,1.69013 c 0.1426554,0.12951 0.2366724,0.2973 0.2868057,0.47589 h 0.4397666 c 0.073062,0 0.1322917,-0.0591 0.1322917,-0.13199 v -0.92396 h 0.6614583 l 0.1322917,0.52798 h 0.6614584 c 0.1461267,0 0.2645833,-0.11819 0.2645833,-0.26399 v -1.84792 c 0,-0.14581 -0.1184593,-0.26399 -0.2645833,-0.26399 H 6.8129479 l -0.1322917,0.52797 H 6.0191979 v -0.65997 c 0,-0.0729 -0.05923,-0.13199 -0.1322917,-0.13199 h -0.79375 l -0.3581188,-0.59604 c -0.023892,-0.0397 -0.067215,-0.0639 -0.1136889,-0.0639 H 3.9025312 v 0.26398 h 0.2645833 v 0.26399 h -0.79375 v -0.26399 h 0.2645833 v -0.26398 z"
         id="path4203" />
      <path
         inkscape:connector-curvature="0"
         d="m 2.7119732,289.98853 v 0.26399 h 0.9260417 v 0.19799 h 0.2645834 v -0.19799 h 0.9260416 v -0.26399 z"
         style="color:#000000;font-style:normal;font-variant:normal;font-weight:normal;font-stretch:normal;font-size:medium;line-height:normal;font-family:sans-serif;text-indent:0;text-align:start;text-decoration:none;text-decoration-line:none;text-decoration-style:solid;text-decoration-color:#000000;letter-spacing:normal;word-spacing:normal;text-transform:none;writing-mode:lr-tb;direction:ltr;baseline-shift:baseline;text-anchor:start;white-space:normal;clip-rule:nonzero;display:inline;overflow:visible;visibility:visible;opacity:1;isolation:auto;mix-blend-mode:normal;color-interpolation:sRGB;color-interpolation-filters:linearRGB;solid-color:#000000;solid-opacity:1;fill:#6c5353;fill-opacity:1;fill-rule:evenodd;stroke:none;stroke-width:1px;stroke-linecap:butt;stroke-linejoin:miter;stroke-miterlimit:4;stroke-dasharray:none;stroke-dashoffset:0;stroke-opacity:1;color-rendering:auto;image-rendering:auto;shape-rendering:auto;text-rendering:auto;enable-background:accumulate"
         id="path4205" />
      <path
         inkscape:connector-curvature="0"
         style="opacity:1;fill:#6c5353;fill-opacity:1;stroke:none;stroke-width:1;stroke-linecap:round;stroke-linejoin:round;stroke-miterlimit:4;stroke-dasharray:none;stroke-opacity:1"
         d="m 4.4647426,291.84894 c -0.2557198,0 -0.4630208,0.20683 -0.4630208,0.46198 v 1.79998 c -0.2072402,0.14849 -0.3303006,0.38735 -0.3307292,0.64191 0,0.43741 0.3553725,0.79197 0.79375,0.79197 0.4383749,0 0.79375,-0.35456 0.79375,-0.79197 -2.646e-4,-0.25475 -0.1233408,-0.49384 -0.3307292,-0.64244 v -1.79945 c 0,-0.25515 -0.2073036,-0.46198 -0.4630208,-0.46198 z m -0.1322917,1.18744 h 0.2645834 v 1.34468 c 0.1538129,0.0545 0.2645833,0.19955 0.2645833,0.37175 0,0.21872 -0.1776889,0.39599 -0.396875,0.39599 -0.2191888,0 -0.396875,-0.17727 -0.396875,-0.39599 0,-0.1722 0.1107678,-0.31721 0.2645833,-0.37175 z"
         id="path4207" />
    </g>
    <g
       id="g4246"
       transform="matrix(0.48774137,0,0,0.48774137,263.62464,239.09948)"
       style="opacity:0.45;fill:#6c5353;fill-opacity:1">
      <path
         inkscape:connector-curvature="0"
         d="m 10.099,65.48 c 0.545,0 1.091,-0.208 1.509,-0.623 0.834,-0.835 0.836,-2.187 0.004,-3.021 C 7.357,57.569 5.009,52.136 5.008,46.53 5,40.933 7.334,35.501 11.582,31.232 c 0.833,-0.836 0.829,-2.188 -0.008,-3.021 -0.836,-0.833 -2.19,-0.829 -3.021,0.008 -5.051,5.076 -7.829,11.582 -7.819,18.315 0.004,6.741 2.791,13.247 7.852,18.319 0.417,0.418 0.964,0.627 1.513,0.627 z"
         id="path4232"
         style="fill:#6c5353;fill-opacity:1" />
      <path
         inkscape:connector-curvature="0"
         d="m 17.595,34.927 c -0.836,-0.833 -2.19,-0.829 -3.021,0.01 -3.195,3.214 -4.951,7.332 -4.947,11.597 0.002,4.263 1.764,8.379 4.96,11.586 0.417,0.419 0.966,0.629 1.512,0.629 0.547,0 1.091,-0.208 1.509,-0.624 0.836,-0.832 0.838,-2.185 0.005,-3.021 -2.393,-2.401 -3.712,-5.447 -3.714,-8.574 -0.004,-3.127 1.312,-6.175 3.705,-8.582 0.832,-0.836 0.828,-2.19 -0.009,-3.021 z"
         id="path4234"
         style="fill:#6c5353;fill-opacity:1" />
      <path
         inkscape:connector-curvature="0"
         d="m 81.04,65.484 c 0.549,0 1.095,-0.21 1.513,-0.627 5.059,-5.072 7.846,-11.578 7.848,-18.315 0.01,-6.736 -2.768,-13.241 -7.821,-18.319 -0.834,-0.836 -2.187,-0.838 -3.021,-0.008 -0.837,0.833 -0.841,2.185 -0.008,3.021 4.249,4.271 6.585,9.704 6.577,15.302 -0.002,5.602 -2.345,11.035 -6.601,15.302 -0.832,0.835 -0.83,2.187 0.004,3.021 0.417,0.415 0.964,0.623 1.509,0.623 z"
         id="path4236"
         style="fill:#6c5353;fill-opacity:1" />
      <path
         inkscape:connector-curvature="0"
         d="m 73.53,58.129 c 0.417,0.416 0.962,0.622 1.508,0.622 0.547,0 1.096,-0.208 1.513,-0.628 3.195,-3.206 4.955,-7.32 4.957,-11.583 0.004,-4.269 -1.752,-8.387 -4.945,-11.6 -0.832,-0.836 -2.185,-0.842 -3.021,-0.007 -0.837,0.831 -0.841,2.183 -0.008,3.021 2.389,2.403 3.704,5.451 3.7,8.582 0,3.127 -1.319,6.171 -3.71,8.572 -0.833,0.836 -0.829,2.189 0.006,3.021 z"
         id="path4238"
         style="fill:#6c5353;fill-opacity:1" />
      <path
         inkscape:connector-curvature="0"
         d="m 34.64,39.939 c 0.218,0 0.433,-0.027 0.629,-0.079 0.525,-0.133 5.264,-1.294 10.099,-1.304 4.995,0 9.959,1.257 10.009,1.271 0.813,0.21 1.698,-0.012 2.331,-0.583 0.626,-0.566 0.954,-1.412 0.879,-2.262 L 57.691,26.43 C 57.606,25.418 56.988,24.555 56.072,24.17 55.604,23.979 51.34,22.296 45.298,22.296 39.115,22.308 34.711,24.131 34.526,24.209 33.616,24.593 33,25.46 32.919,26.471 L 32.05,37.029 c -0.068,0.85 0.265,1.694 0.886,2.256 0.471,0.423 1.076,0.654 1.704,0.654 z"
         id="path4240"
         style="fill:#6c5353;fill-opacity:1" />
      <path
         inkscape:connector-curvature="0"
         d="m 56.988,57.907 c -0.232,-0.095 -5.747,-2.32 -11.64,-2.32 -5.872,0.01 -11.398,2.265 -11.628,2.359 -1.107,0.451 -1.771,1.622 -1.619,2.849 l 0.89,7.031 c 0.12,0.962 0.734,1.784 1.604,2.146 0.181,0.077 4.558,1.878 10.726,1.878 h 0.054 c 6.038,-0.01 10.304,-1.718 10.772,-1.912 0.867,-0.365 1.478,-1.188 1.592,-2.146 l 0.873,-7.041 c 0.153,-1.224 -0.517,-2.394 -1.624,-2.844 z"
         id="path4242"
         style="fill:#6c5353;fill-opacity:1" />
      <path
         inkscape:connector-curvature="0"
         d="m 67.052,33.65 c 0.593,0 1.184,-0.245 1.606,-0.728 0.778,-0.887 0.688,-2.237 -0.198,-3.016 L 65.089,26.953 C 64.935,26.818 64.765,26.719 64.591,26.636 64.266,21.983 63.947,17.832 63.918,17.465 63.378,11.64 58.176,6.9 52.304,6.9 L 38.225,6.923 c -5.862,0.006 -11.059,4.764 -11.59,10.659 -0.058,0.919 -0.318,4.983 -0.593,9.376 l -3.365,2.951 c -0.889,0.779 -0.976,2.127 -0.199,3.014 0.423,0.483 1.014,0.728 1.607,0.728 0.5,0 1.002,-0.174 1.408,-0.529 l 0.18,-0.158 c -0.203,3.363 -0.355,6.075 -0.355,6.575 l 0.06,33.513 c 0.004,2.856 1.186,5.53 3.332,7.529 2.065,1.922 4.783,2.98 7.649,2.98 h 0.02 l 18.014,-0.027 c 2.923,-0.006 5.677,-1.154 7.756,-3.235 2.072,-2.078 3.212,-4.835 3.212,-7.767 l -0.05,-33.126 c -0.004,-1.25 -0.142,-3.863 -0.327,-6.863 l 0.661,0.58 c 0.404,0.354 0.906,0.527 1.407,0.527 z m -7.928,43.629 c -1.272,1.274 -2.955,1.978 -4.74,1.981 l -18.012,0.027 0.002,2.136 -0.016,-2.136 c -1.783,0 -3.465,-0.651 -4.736,-1.835 -1.271,-1.183 -1.97,-2.749 -1.972,-4.408 L 29.59,39.533 c 0,-0.951 0.782,-13.486 1.304,-21.624 0.334,-3.699 3.624,-6.71 7.336,-6.714 l 14.093,-0.023 c 3.705,0 7,3 7.34,6.654 0.014,0.178 1.363,17.829 1.373,21.587 l 0.051,33.121 c 0,1.789 -0.697,3.476 -1.963,4.745 z"
         id="path4244"
         style="fill:#6c5353;fill-opacity:1" />
    </g>
    <g
       id="g4280"
       transform="matrix(0.27208265,0,0,0.27208265,342.38653,179.5196)"
       style="opacity:0.7;fill:#6c5353;fill-opacity:1">
      <path
         inkscape:connector-curvature="0"
         d="m 32.474,63.695 c -1.142,-1.143 -2.996,-1.143 -4.139,0 -1.143,1.143 -1.143,2.994 0,4.137 4.918,4.916 11.377,7.375 17.834,7.375 6.459,0 12.917,-2.459 17.834,-7.375 9.833,-9.832 9.833,-25.833 0,-35.667 -9.834,-9.833 -25.833,-9.833 -35.668,10e-4 -1.143,1.143 -1.143,2.995 0,4.138 1.143,1.142 2.996,1.142 4.14,0 7.551,-7.551 19.838,-7.553 27.39,-0.001 7.552,7.552 7.552,19.839 0,27.392 -7.552,7.551 -19.839,7.551 -27.391,0 z"
         id="path4272"
         style="fill:#6c5353;fill-opacity:1" />
      <path
         inkscape:connector-curvature="0"
         d="m 21.472,71.74 c -0.816,0.814 -0.816,2.139 0,2.955 6.597,6.598 15.367,10.23 24.697,10.23 0.002,0 0,0 0.002,0 9.328,0 18.1,-3.633 24.695,-10.23 13.618,-13.617 13.618,-35.775 0,-49.394 C 64.27,18.705 55.499,15.072 46.169,15.072 c -9.33,0 -18.101,3.632 -24.697,10.229 -0.816,0.816 -0.816,2.14 0,2.956 0.816,0.816 2.141,0.816 2.957,0 11.988,-11.988 31.493,-11.989 43.482,-0.001 11.987,11.989 11.987,31.497 0,43.483 -5.808,5.809 -13.528,9.006 -21.742,9.006 -8.213,0 -15.934,-3.197 -21.74,-9.006 -0.817,-0.815 -2.141,-0.815 -2.957,10e-4 z"
         id="path4274"
         style="fill:#6c5353;fill-opacity:1" />
      <path
         inkscape:connector-curvature="0"
         d="M 77.614,18.554 C 60.275,1.216 32.063,1.216 14.724,18.556 c -0.49,0.489 -0.49,1.284 0,1.773 0.491,0.49 1.283,0.49 1.773,0 16.361,-16.36 42.982,-16.362 59.344,-0.001 16.36,16.361 16.36,42.983 0,59.344 -16.361,16.36 -42.981,16.36 -59.344,-0.002 -0.49,-0.488 -1.282,-0.488 -1.773,0 -0.49,0.49 -0.49,1.283 0,1.773 8.672,8.671 20.059,13.007 31.447,13.005 11.387,0 22.773,-4.336 31.443,-13.003 17.338,-17.34 17.338,-45.552 0,-62.891 z"
         id="path4276"
         style="fill:#6c5353;fill-opacity:1" />
      <path
         inkscape:connector-curvature="0"
         d="m 46.169,60.242 c 5.657,0 10.241,-4.586 10.241,-10.243 0,-5.656 -4.584,-10.241 -10.241,-10.241 -4.482,0 -8.285,2.887 -9.672,6.9 H 9.384 v 6.684 h 27.113 c 1.387,4.013 5.19,6.9 9.672,6.9 z m -0.27,-4.203 c 3.437,0 6.231,-2.795 6.231,-6.23 0,-0.462 0.375,-0.836 0.836,-0.836 0.463,0 0.836,0.374 0.836,0.836 0,4.357 -3.545,7.902 -7.903,7.902 -0.461,0 -0.836,-0.373 -0.836,-0.836 0,-0.461 0.375,-0.836 0.836,-0.836 z"
         id="path4278"
         style="fill:#6c5353;fill-opacity:1" />
    </g>
    <g
       id="g4319"
       transform="matrix(0.3521422,0,0,0.3521422,49.359305,188.41731)"
       style="opacity:0.6;fill:#6c5353;fill-opacity:1">
      <path
         inkscape:connector-curvature="0"
         d="m 60.9,50.2 c 0,6 -4.9,11 -10.9,11 -6,0 -10.9,-5 -10.9,-11 0,-6 4.9,-11 10.9,-11 6,0 10.9,4.8 10.9,11 z"
         id="path4303"
         style="fill:#6c5353;fill-opacity:1" />
      <g
         id="g4317"
         style="fill:#6c5353;fill-opacity:1">
        <path
           inkscape:connector-curvature="0"
           d="m 18.2,50.2 c 0,-10.6 5.2,-19.9 13.3,-25.6 L 30.1,22.8 C 21.5,28.9 16,39 16,50.4 c 0,11.2 5.4,21.1 13.8,27.3 l 1.4,-1.8 c -7.9,-6.1 -13,-15.2 -13,-25.7 z"
           id="path4305"
           style="fill:#6c5353;fill-opacity:1" />
        <path
           inkscape:connector-curvature="0"
           d="M 84,50.2 C 84,39 78.5,28.9 69.9,22.8 l -1.3,1.8 c 7.9,5.7 13.2,15.1 13.2,25.6 0,10.4 -5.1,19.5 -12.8,25.4 l 1.4,1.8 C 78.6,71.2 84,61.3 84,50.2 Z"
           id="path4307"
           style="fill:#6c5353;fill-opacity:1" />
        <path
           inkscape:connector-curvature="0"
           d="M 92.8,50.2 C 92.8,64.1 86,76.6 75.6,84.4 L 77,86.2 C 87.8,77.9 95,64.8 95,50.1 95,35.1 87.6,21.9 76.4,13.8 L 75,15.5 c 10.9,7.8 17.8,20.4 17.8,34.7 z"
           id="path4309"
           style="fill:#6c5353;fill-opacity:1" />
        <path
           inkscape:connector-curvature="0"
           d="M 7.2,50.2 C 7.2,36 14.3,23.3 24.9,15.5 L 23.5,13.7 C 12.3,22 5,35.2 5,50.2 5,65 12.2,78.1 23.3,86.3 l 1.4,-1.8 C 14,76.7 7.2,64.3 7.2,50.2 Z"
           id="path4311"
           style="fill:#6c5353;fill-opacity:1" />
        <path
           inkscape:connector-curvature="0"
           d="m 29.1,50.2 c 0,-7 3.5,-13.2 8.9,-16.9 l -1.4,-1.8 c -5.9,4.2 -9.8,11 -9.8,18.6 0,7.5 3.8,14.3 9.3,18.5 l 1.4,-1.8 C 32.4,62.9 29.1,56.9 29.1,50.2 Z"
           id="path4313"
           style="fill:#6c5353;fill-opacity:1" />
        <path
           inkscape:connector-curvature="0"
           d="m 73.1,50.2 c 0,-7.6 -3.9,-14.4 -9.6,-18.6 l -1.4,1.8 c 5.2,3.8 8.7,9.9 8.7,16.8 0,6.8 -3.3,12.8 -8.2,16.5 l 1.3,1.8 c 5.5,-4.4 9.2,-10.8 9.2,-18.3 z"
           id="path4315"
           style="fill:#6c5353;fill-opacity:1" />
      </g>
    </g>
    <g
       id="g4358"
       transform="matrix(0.43492098,0,0,0.43492098,414.34898,238.79993)"
       style="opacity:0.6;fill:#6c5353;fill-opacity:1">
      <path
         inkscape:connector-curvature="0"
         d="M 87.916,39.136 H 12.083 c 0,3.013 1.98,5.595 4.796,6.687 v 33.896 h -1.392 c -1.648,0 -2.984,1.256 -2.984,2.805 0,1.55 1.335,2.806 2.984,2.806 H 84.51 c 1.646,0 2.982,-1.256 2.982,-2.806 0,-1.549 -1.336,-2.805 -2.982,-2.805 H 83.117 V 45.823 c 2.819,-1.092 4.799,-3.674 4.799,-6.687 z M 40.462,79.718 H 22.847 V 45.806 c 2.24,-0.872 3.955,-2.676 4.559,-4.906 0.851,3.143 3.886,5.479 7.531,5.479 2.174,0 4.119,-0.843 5.525,-2.181 z m 36.69,0 H 43.548 V 64.042 h 33.604 z m 0,-17.486 H 43.548 V 43.15 c 1.391,1.943 3.751,3.229 6.452,3.229 3.644,0 6.679,-2.336 7.531,-5.479 0.852,3.143 3.887,5.479 7.531,5.479 3.644,0 6.68,-2.336 7.531,-5.479 0.604,2.229 2.318,4.034 4.559,4.905 z"
         id="path4346"
         style="fill:#6c5353;fill-opacity:1" />
      <polygon
         points="87.916,38.014 78.26,19.687 21.739,19.687 12.083,38.014 "
         id="polygon4348"
         style="fill:#6c5353;fill-opacity:1" />
      <path
         inkscape:connector-curvature="0"
         d="m 22.845,18.529 h 53.907 c 0.834,0 1.508,-0.864 1.508,-1.929 0,-1.065 -0.674,-1.929 -1.508,-1.929 H 22.845 c -0.833,0 -1.508,0.864 -1.508,1.929 0,1.065 0.675,1.929 1.508,1.929 z"
         id="path4350"
         style="fill:#6c5353;fill-opacity:1" />
      <circle
         cx="37.890999"
         cy="62.359001"
         r="1.683"
         id="circle4352"
         style="fill:#6c5353;fill-opacity:1" />
      <rect
         x="50.580002"
         y="44.859001"
         transform="matrix(0.7068,0.7075,-0.7075,0.7068,50.9967,-21.3775)"
         width="1.411"
         height="11.936"
         id="rect4354"
         style="fill:#6c5353;fill-opacity:1" />
      <rect
         x="52.938999"
         y="44.011002"
         transform="matrix(-0.7073,-0.7069,0.7069,-0.7073,53.9874,128.7286)"
         width="1.4119999"
         height="18.353001"
         id="rect4356"
         style="fill:#6c5353;fill-opacity:1" />
    </g>
    <g
       data-name="Group"
       id="g4391"
       transform="matrix(0.38291777,0,0,0.38291777,80.277885,183.76163)"
       style="opacity:0.45;fill:#6c5353;fill-opacity:1">
      <path
         inkscape:connector-curvature="0"
         data-name="Path"
         d="m 41.8,71.9 a 9.8,9.8 0 1 0 9.8,9.8 9.8,9.8 0 0 0 -9.8,-9.8 z"
         id="path4385"
         style="fill:#6c5353;fill-opacity:1" />
      <path
         inkscape:connector-curvature="0"
         data-name="Path"
         d="m 70.4,71.9 a 9.8,9.8 0 1 0 9.8,9.8 9.8,9.8 0 0 0 -9.8,-9.8 z"
         id="path4387"
         style="fill:#6c5353;fill-opacity:1" />
      <path
         inkscape:connector-curvature="0"
         data-name="Path"
         d="M 87.1,61.9 H 36 l -1,-5.8 h 42 a 3,3 0 0 0 2.8,-1.9 L 89.8,29 A 3,3 0 0 0 87,24.9 H 29.8 L 27.4,11.1 a 3,3 0 0 0 -3,-2.5 H 12.9 a 3,3 0 1 0 0,6 h 9 l 8.6,50.8 a 3,3 0 0 0 3,2.5 h 53.6 a 3,3 0 0 0 0,-6 z"
         id="path4389"
         style="fill:#6c5353;fill-opacity:1" />
    </g>
    <g
       style="fill:#999999"
       transform="matrix(2.1816837,0,0,2.1816837,-841.94207,-315.88345)"
       id="g4631">
      <text
         style="font-weight:bold;font-size:1.32291663px;font-family:'Helvetica Neue', Helvetica, Arial-Unicode, Arial, Sans-serif;fill:#999999;stroke-width:0.26458332"
         x="708.90985"
         y="173.34383"
         font-size="5px"
         font-weight="bold"
         id="text3747">Created by Garrett Knoll</text>
      <text
         style="font-weight:bold;font-size:1.32291663px;font-family:'Helvetica Neue', Helvetica, Arial-Unicode, Arial, Sans-serif;fill:#999999;stroke-width:0.26458332"
         x="708.90985"
         y="177.93562"
         font-size="5px"
         font-weight="bold"
         id="text3804">Created by Federico Panzano</text>
      <text
         style="font-weight:bold;font-size:1.32291663px;font-family:'Helvetica Neue', Helvetica, Arial-Unicode, Arial, Sans-serif;fill:#999999;stroke-width:0.26458332"
         x="708.90985"
         y="180.23154"
         font-size="5px"
         font-weight="bold"
         id="text3837">Created by Federico Panzano</text>
      <text
         style="font-weight:bold;font-size:1.32291663px;font-family:'Helvetica Neue', Helvetica, Arial-Unicode, Arial, Sans-serif;fill:#999999;stroke-width:0.26458332"
         x="708.90985"
         y="175.63972"
         font-size="5px"
         font-weight="bold"
         id="text3870">Created by ArtWorkLeaf</text>
      <text
         style="font-weight:bold;font-size:1.32291663px;font-family:'Helvetica Neue', Helvetica, Arial-Unicode, Arial, Sans-serif;fill:#999999;stroke-width:0.26458332"
         x="708.90985"
         y="187.11925"
         font-size="5px"
         font-weight="bold"
         id="text3893">Created by Aleksandr Vector</text>
      <text
         style="font-weight:bold;font-size:1.32291663px;font-family:'Helvetica Neue', Helvetica, Arial-Unicode, Arial, Sans-serif;fill:#999999;stroke-width:0.26458332"
         x="708.90985"
         y="198.59877"
         font-size="5px"
         font-weight="bold"
         id="text3912">Created by Aleksandr Vector</text>
      <text
         style="font-weight:bold;font-size:1.32291663px;font-family:'Helvetica Neue', Helvetica, Arial-Unicode, Arial, Sans-serif;fill:#999999;stroke-width:0.26458332"
         x="708.90985"
         y="168.75201"
         font-size="5px"
         font-weight="bold"
         id="text3933">Created by Rockicon</text>
      <text
         style="font-weight:bold;font-size:1.32291663px;font-family:'Helvetica Neue', Helvetica, Arial-Unicode, Arial, Sans-serif;fill:#999999;stroke-width:0.26458332"
         x="708.90985"
         y="161.8643"
         font-size="5px"
         font-weight="bold"
         id="text3993">Created by Icon Fair</text>
      <text
         style="font-weight:bold;font-size:1.32291663px;font-family:'Helvetica Neue', Helvetica, Arial-Unicode, Arial, Sans-serif;fill:#999999;stroke-width:0.26458332"
         x="708.90985"
         y="182.52744"
         font-size="5px"
         font-weight="bold"
         id="text4055">Created by Lero Keller</text>
      <text
         style="font-weight:bold;font-size:1.32291663px;font-family:'Helvetica Neue', Helvetica, Arial-Unicode, Arial, Sans-serif;fill:#999999;stroke-width:0.26458332"
         x="708.90985"
         y="189.41516"
         font-size="5px"
         font-weight="bold"
         id="text4105">Created by Ben Davis</text>
      <text
         style="font-weight:bold;font-size:1.32291663px;font-family:'Helvetica Neue', Helvetica, Arial-Unicode, Arial, Sans-serif;fill:#999999;stroke-width:0.26458332"
         x="708.90985"
         y="191.71106"
         font-size="5px"
         font-weight="bold"
         id="text4140">Created by Ervin Bolat</text>
      <text
         style="font-weight:bold;font-size:1.32291663px;font-family:'Helvetica Neue', Helvetica, Arial-Unicode, Arial, Sans-serif;fill:#999999;stroke-width:0.26458332"
         x="708.90985"
         y="184.82574"
         font-size="5px"
         font-weight="bold"
         id="text4176">Created by  Shmidt Sergey </text>
      <text
         style="font-weight:bold;font-size:1.32291663px;font-family:'Helvetica Neue', Helvetica, Arial-Unicode, Arial, Sans-serif;fill:#999999;stroke-width:0.26458332"
         x="708.90985"
         y="194.00696"
         font-size="5px"
         font-weight="bold"
         id="text4211">Created by anbileru adaleru</text>
      <text
         style="font-weight:bold;font-size:1.32291663px;font-family:'Helvetica Neue', Helvetica, Arial-Unicode, Arial, Sans-serif;fill:#999999;stroke-width:0.26458332"
         x="708.90985"
         y="196.30286"
         font-size="5px"
         font-weight="bold"
         id="text4248">Created by BomSymbols</text>
      <text
         style="font-weight:bold;font-size:1.32291663px;font-family:'Helvetica Neue', Helvetica, Arial-Unicode, Arial, Sans-serif;fill:#999999;stroke-width:0.26458332"
         x="708.90985"
         y="171.04793"
         font-size="5px"
         font-weight="bold"
         id="text4282">Created by Bakunetsu Kaito</text>
      <text
         style="font-weight:bold;font-size:1.32291663px;font-family:'Helvetica Neue', Helvetica, Arial-Unicode, Arial, Sans-serif;fill:#999999;stroke-width:0.26458332"
         x="708.90985"
         y="166.4561"
         font-size="5px"
         font-weight="bold"
         id="text4321">Created by Hysen Drogu</text>
      <text
         style="font-weight:bold;font-size:1.32291663px;font-family:'Helvetica Neue', Helvetica, Arial-Unicode, Arial, Sans-serif;fill:#999999;stroke-width:0.26458332"
         x="708.94952"
         y="200.88739"
         font-size="5px"
         font-weight="bold"
         id="text4323">from the Noun Project</text>
      <text
         style="font-weight:bold;font-size:1.32291663px;font-family:'Helvetica Neue', Helvetica, Arial-Unicode, Arial, Sans-serif;fill:#999999;stroke-width:0.26458332"
         x="708.90985"
         y="164.1602"
         font-size="5px"
         font-weight="bold"
         id="text4360">Created by asianson.design</text>
      <text
         style="font-weight:bold;font-size:1.32291663px;font-family:'Helvetica Neue', Helvetica, Arial-Unicode, Arial, Sans-serif;fill:#999999;stroke-width:0.26458332"
         x="708.90985"
         y="159.56839"
         font-size="5px"
         font-weight="bold"
         id="text4393">Created by Naveen</text>
      <text
         style="font-weight:bold;font-size:1.32291663px;font-family:'Helvetica Neue', Helvetica, Arial-Unicode, Arial, Sans-serif;fill:#999999;stroke-width:0.26458332"
         x="708.90985"
         y="157.27249"
         font-size="5px"
         font-weight="bold"
         id="text3778">Created by b farias</text>
      <text
         style="font-weight:bold;font-size:1.32291663px;font-family:'Helvetica Neue', Helvetica, Arial-Unicode, Arial, Sans-serif;fill:#999999;stroke-width:0.26458332"
         x="708.90985"
         y="154.97659"
         font-size="5px"
         font-weight="bold"
         id="text4032">Created by Icon Fair</text>
    </g>
    <g
       id="g3991"
       transform="matrix(-0.08053111,0,0,0.08053111,58.597962,203.89805)"
       style="opacity:0.85;fill:#6c5353;fill-opacity:1">
      <path
         inkscape:connector-curvature="0"
         d="M 412.1,2 C 404.3,2 398,8.3 398,16 c 0,7.7 6.3,14 14.1,14 38.4,0 69.7,31.2 69.7,69.6 0,7.7 6.3,14 14.1,14 7.8,0 14.1,-6.3 14.1,-14 C 510,45.8 466.1,2 412.1,2 Z"
         id="path3951"
         style="fill:#6c5353;fill-opacity:1" />
      <path
         inkscape:connector-curvature="0"
         d="m 400.8,88 c 12.7,0 23.1,10.3 23.1,23 0,7.7 6.3,14 14.1,14 7.8,0 14.1,-6.3 14.1,-14 0,-28.2 -23,-51.1 -51.2,-51.1 -7.8,0 -14.1,6.3 -14.1,14 0,7.7 6.2,14.1 14,14.1 z"
         id="path3953"
         style="fill:#6c5353;fill-opacity:1" />
      <path
         inkscape:connector-curvature="0"
         d="m 329.4,61.7 c -23.9,-23.8 -51.7,-8 -59.7,0 L 14.3,316.5 c -8,8 -23.1,36.5 0,59.5 L 135,496.5 c 25.9,25.8 51.7,8 59.7,0 L 450.2,241.6 c 16.5,-16.4 16.5,-43.1 0,-59.5 z M 430.3,221.8 174.8,476.7 c -5.3,5.3 -14.6,5.3 -19.9,0 L 34.2,356.2 c -7.4,-7.4 -2.7,-17.2 0,-19.8 L 289.7,81.5 c 2.7,-2.6 12.3,-7.5 19.9,0 L 430.3,202 c 5.5,5.4 5.5,14.3 0,19.8 z"
         id="path3955"
         style="fill:#6c5353;fill-opacity:1" />
      <path
         inkscape:connector-curvature="0"
         d="m 308.5,115.3 c -5.5,-5.5 -14.4,-5.5 -19.9,0 -5.5,5.5 -5.5,14.4 0,19.8 l 8.2,8.2 c 2.7,2.7 6.3,4.1 9.9,4.1 3.6,0 7.2,-1.4 9.9,-4.1 5.5,-5.5 5.5,-14.4 0,-19.8 z"
         id="path3957"
         style="fill:#6c5353;fill-opacity:1" />
      <path
         inkscape:connector-curvature="0"
         d="m 266.1,157.7 c -5.5,-5.5 -14.4,-5.5 -19.9,0 -5.5,5.5 -5.5,14.4 0,19.8 l 8.2,8.2 c 2.7,2.7 6.3,4.1 9.9,4.1 3.6,0 7.2,-1.4 9.9,-4.1 5.5,-5.5 5.5,-14.4 0,-19.8 z"
         id="path3959"
         style="fill:#6c5353;fill-opacity:1" />
      <path
         inkscape:connector-curvature="0"
         d="m 223.6,200.1 c -5.5,-5.5 -14.4,-5.5 -19.9,0 -5.5,5.5 -5.5,14.4 0,19.8 l 8.2,8.2 c 2.7,2.7 6.3,4.1 9.9,4.1 3.6,0 7.2,-1.4 9.9,-4.1 5.5,-5.5 5.5,-14.4 0,-19.8 z"
         id="path3961"
         style="fill:#6c5353;fill-opacity:1" />
      <path
         inkscape:connector-curvature="0"
         d="m 181.1,242.5 c -5.5,-5.5 -14.4,-5.5 -19.9,0 -5.5,5.5 -5.5,14.4 0,19.8 l 8.2,8.2 c 2.7,2.7 6.3,4.1 9.9,4.1 3.6,0 7.2,-1.4 9.9,-4.1 5.5,-5.5 5.5,-14.4 0,-19.8 z"
         id="path3963"
         style="fill:#6c5353;fill-opacity:1" />
      <path
         inkscape:connector-curvature="0"
         d="m 138.6,284.8 c -5.5,-5.5 -14.4,-5.5 -19.9,0 -5.5,5.5 -5.5,14.4 0,19.8 l 8.2,8.2 c 2.7,2.7 6.4,4.1 10,4.1 3.6,0 7.2,-1.4 9.9,-4.1 5.5,-5.5 5.5,-14.4 0,-19.8 z"
         id="path3965"
         style="fill:#6c5353;fill-opacity:1" />
      <path
         inkscape:connector-curvature="0"
         d="m 96.1,327.2 c -5.5,-5.5 -14.4,-5.5 -19.9,0 -5.5,5.5 -5.5,14.4 0,19.8 l 8.2,8.2 c 2.7,2.7 6.3,4.1 9.9,4.1 3.6,0 7.2,-1.4 9.9,-4.1 5.5,-5.5 5.5,-14.4 0,-19.8 z"
         id="path3967"
         style="fill:#6c5353;fill-opacity:1" />
      <path
         inkscape:connector-curvature="0"
         d="m 388.2,194.8 c -5.5,-5.5 -14.4,-5.5 -19.9,0 -5.5,5.5 -5.5,14.4 0,19.8 l 8.2,8.2 c 2.7,2.7 6.3,4.1 9.9,4.1 3.6,0 7.2,-1.4 9.9,-4.1 5.5,-5.5 5.5,-14.4 0,-19.8 z"
         id="path3969"
         style="fill:#6c5353;fill-opacity:1" />
      <path
         inkscape:connector-curvature="0"
         d="m 345.7,237.2 c -5.5,-5.5 -14.4,-5.5 -19.9,0 -5.5,5.5 -5.5,14.4 0,19.8 l 8.2,8.2 c 2.7,2.7 6.3,4.1 9.9,4.1 3.6,0 7.2,-1.4 9.9,-4.1 5.5,-5.5 5.5,-14.4 0,-19.8 z"
         id="path3971"
         style="fill:#6c5353;fill-opacity:1" />
      <path
         inkscape:connector-curvature="0"
         d="m 303.2,279.5 c -5.5,-5.5 -14.4,-5.5 -19.9,0 -5.5,5.5 -5.5,14.4 0,19.8 l 8.2,8.2 c 2.7,2.7 6.3,4.1 9.9,4.1 3.6,0 7.2,-1.4 9.9,-4.1 5.5,-5.5 5.5,-14.4 0,-19.8 z"
         id="path3973"
         style="fill:#6c5353;fill-opacity:1" />
      <path
         inkscape:connector-curvature="0"
         d="m 260.7,321.9 c -5.5,-5.5 -14.4,-5.5 -19.9,0 -5.5,5.5 -5.5,14.4 0,19.8 l 8.2,8.2 c 2.7,2.7 6.3,4.1 9.9,4.1 3.6,0 7.2,-1.4 9.9,-4.1 5.5,-5.5 5.5,-14.4 0,-19.8 z"
         id="path3975"
         style="fill:#6c5353;fill-opacity:1" />
      <path
         inkscape:connector-curvature="0"
         d="m 218.3,364.3 c -5.5,-5.5 -14.4,-5.5 -19.9,0 -5.5,5.5 -5.5,14.4 0,19.8 l 8.2,8.2 c 2.7,2.7 6.4,4.1 10,4.1 3.6,0 7.2,-1.4 9.9,-4.1 5.5,-5.5 5.5,-14.4 0,-19.8 z"
         id="path3977"
         style="fill:#6c5353;fill-opacity:1" />
      <path
         inkscape:connector-curvature="0"
         d="m 175.8,406.7 c -5.5,-5.5 -14.4,-5.5 -19.9,0 -5.5,5.5 -5.5,14.4 0,19.8 l 8.2,8.2 c 2.7,2.7 6.3,4.1 9.9,4.1 3.6,0 7.2,-1.4 9.9,-4.1 5.5,-5.5 5.5,-14.4 0,-19.8 z"
         id="path3979"
         style="fill:#6c5353;fill-opacity:1" />
      <path
         inkscape:connector-curvature="0"
         d="m 305.9,197.4 c -5.5,-5.5 -14.4,-5.5 -19.9,0 -5.5,5.5 -5.5,14.4 0,19.8 l 8.2,8.2 c 2.7,2.7 6.3,4.1 9.9,4.1 3.6,0 7.2,-1.4 9.9,-4.1 5.5,-5.5 5.5,-14.4 0,-19.8 z"
         id="path3981"
         style="fill:#6c5353;fill-opacity:1" />
      <path
         inkscape:connector-curvature="0"
         d="m 263.4,239.8 c -5.5,-5.5 -14.4,-5.5 -19.9,0 -5.5,5.5 -5.5,14.4 0,19.8 l 8.2,8.2 c 2.7,2.7 6.3,4.1 9.9,4.1 3.6,0 7.2,-1.4 9.9,-4.1 5.5,-5.5 5.5,-14.4 0,-19.8 z"
         id="path3983"
         style="fill:#6c5353;fill-opacity:1" />
      <path
         inkscape:connector-curvature="0"
         d="m 220.9,282.2 c -5.5,-5.5 -14.4,-5.5 -19.9,0 -5.5,5.5 -5.5,14.4 0,19.8 l 8.2,8.2 c 2.7,2.7 6.3,4.1 9.9,4.1 3.6,0 7.2,-1.4 9.9,-4.1 5.5,-5.5 5.5,-14.4 0,-19.8 z"
         id="path3985"
         style="fill:#6c5353;fill-opacity:1" />
      <path
         inkscape:connector-curvature="0"
         d="m 178.5,324.6 c -5.5,-5.5 -14.4,-5.5 -19.9,0 -5.5,5.5 -5.5,14.4 0,19.8 l 8.2,8.2 c 2.7,2.7 6.4,4.1 10,4.1 3.6,0 7.2,-1.4 9.9,-4.1 5.5,-5.5 5.5,-14.4 0,-19.8 z"
         id="path3987"
         style="fill:#6c5353;fill-opacity:1" />
      <path
         inkscape:connector-curvature="0"
         d="m 136,366.9 c -5.5,-5.5 -14.4,-5.5 -19.9,0 -5.5,5.5 -5.5,14.4 0,19.8 l 8.2,8.2 c 2.7,2.7 6.3,4.1 9.9,4.1 3.6,0 7.2,-1.4 9.9,-4.1 5.5,-5.5 5.5,-14.4 0,-19.8 z"
         id="path3989"
         style="fill:#6c5353;fill-opacity:1" />
    </g>
  </g>
</svg>
